<?xml version="1.0" encoding="UTF-8" standalone="no"?>
<svg
   xmlns:dc="http://purl.org/dc/elements/1.1/"
   xmlns:cc="http://creativecommons.org/ns#"
   xmlns:rdf="http://www.w3.org/1999/02/22-rdf-syntax-ns#"
   xmlns:svg="http://www.w3.org/2000/svg"
   xmlns="http://www.w3.org/2000/svg"
   xmlns:sodipodi="http://sodipodi.sourceforge.net/DTD/sodipodi-0.dtd"
   xmlns:inkscape="http://www.inkscape.org/namespaces/inkscape"
   inkscape:version="1.0 (4035a4fb49, 2020-05-01)"
   sodipodi:docname="tatu-icon.svg"
   id="svg839"
   version="1.1"
   viewBox="0 0 9.5249998 9.5250003"
   height="36"
   width="36">
  <defs
     id="defs833" />
  <sodipodi:namedview
     inkscape:window-maximized="1"
     inkscape:window-y="-8"
     inkscape:window-x="-8"
     inkscape:window-height="1017"
     inkscape:window-width="1920"
     inkscape:pagecheckerboard="true"
     units="px"
     showgrid="false"
     inkscape:document-rotation="0"
     inkscape:current-layer="layer1"
     inkscape:document-units="mm"
     inkscape:cy="22.141305"
     inkscape:cx="22.768051"
     inkscape:zoom="15.839192"
     inkscape:pageshadow="2"
     inkscape:pageopacity="0.0"
     borderopacity="1.0"
     bordercolor="#666666"
     pagecolor="#ffffff"
     id="base" />
  <metadata
     id="metadata836">
    <rdf:RDF>
      <cc:Work
         rdf:about="">
        <dc:format>image/svg+xml</dc:format>
        <dc:type
           rdf:resource="http://purl.org/dc/dcmitype/StillImage" />
        <dc:title></dc:title>
      </cc:Work>
    </rdf:RDF>
  </metadata>
  <g
     style="display:inline"
     id="layer1"
     inkscape:groupmode="layer"
     inkscape:label="Laag 1">
    <ellipse
       ry="4.7483263"
       rx="4.7719483"
       transform="matrix(0.99998861,0.00477237,-0.00481997,0.99998838,0,0)"
       cy="4.7373552"
       cx="4.785388"
       id="path841"
       style="fill:#ff8080;stroke-width:0.913943" />
  </g>
  <g
     inkscape:label="Laag 3"
     id="layer3"
     inkscape:groupmode="layer">
    <g
       transform="matrix(0.00231192,0,0,0.00231192,2.1058754,2.4249215)"
       id="g1421"
       style="fill:#000000">
      <path
         style="fill:#000000;fill-opacity:1"
         d="m 530,1762.3244 c -143.30879,-3.0919 -242.38941,-21.2918 -308,-56.5758 -43.10673,-23.1819 -78.98865,-49.5936 -108.54621,-79.898 C 47.980391,1558.7229 11.594767,1475.3273 2.9165388,1372.5 1.1789035,1351.911 1.4332702,1307.0475 3.4126455,1285 11.547646,1194.3875 38.354021,1105.5109 73.894595,1051.317 c 24.090832,-36.7348 42.944785,-50.7523 65.925825,-49.0142 14.19166,1.0733 28.19005,10.5197 31.12549,21.004 3.69478,13.1965 -9.60885,56.7639 -32.42688,106.1932 -10.2745,22.257 -10.58028,22.9796 -16.61221,39.2526 -23.243318,62.7061 -31.256449,134.5577 -21.90035,196.3744 10.16663,67.172 41.43848,129.7498 87.89454,175.8849 61.21254,60.7897 154.02509,91.5671 301.47283,99.9709 31.03841,1.7691 89.82713,2.4066 103.62616,1.1238 31.58552,-2.9363 64.88238,-12.7292 95.98056,-28.2289 17.97947,-8.9611 28.8802,-15.9688 37.80462,-24.3033 10.37075,-9.6851 9.79008,-6.6557 9.21482,-48.0744 -1.41836,-102.1217 -0.49103,-153.009 3.59909,-197.5 12.60888,-137.1555 50.22764,-254.3582 112.17484,-349.48505 75.89386,-116.54348 200.60107,-222.05042 371.88037,-314.62472 23.5678,-12.73812 82.7697,-42.04784 106.8457,-52.89726 27.6709,-12.46939 56.7102,-24.7049 92.948,-39.16291 19.2786,-7.69171 36.0587,-14.63166 37.2891,-15.42211 1.2305,-0.79046 3.0765,-3.11812 4.1024,-5.17257 4.4233,-8.85804 4.5901,-11.20518 4.6706,-65.73538 0.061,-41.51273 0.4293,-55.63021 1.8245,-70 2.5357,-26.11536 5.2779,-46.67737 8.8018,-66 2.9514,-16.18314 3.0744,-17.88893 2.5607,-35.5 -0.737,-25.26427 -2.3888,-34.8365 -22.0885,-128 -4.1286,-19.525 -8.6281,-41.575 -9.9988,-49 -14.1433,-76.61329 -10.4283,-117.518567 11.5307,-126.965104 6.8408,-2.942835 11.351,-2.207087 21.3297,3.479519 13.183,7.512664 26.753,18.209217 66.5298,52.441975 26.2055,22.55307 40.2741,33.54561 47.262,36.92838 4.2687,2.06647 5.1755,2.1662 10.2039,1.1223 10.7279,-2.22709 13.9305,-8.66404 17.547,-35.267158 C 1626.1524,76.35796 1627.786,65.9 1628.6432,61.5 c 5.6849,-29.18097 23.6735,-63.2785918 31.7487,-60.1798616 3.6938,1.417463 7.7331,12.6526066 18.1882,50.5900876 7.2661,26.365798 10.2227,33.831411 15.091,38.105876 3.2071,2.81581 3.7806,2.952667 11.6014,2.768149 7.1286,-0.168187 9.8971,0.334139 20.7275,3.760817 12.3596,3.910522 12.6404,3.949812 25,3.498692 25.668,-0.936873 31.1066,-0.675427 36.0605,1.73353 5.8374,2.83859 8.7025,5.884 16.8643,17.92613 10.8461,16.00266 13.5978,17.17785 58.0539,24.79395 43.7647,7.49766 50.3759,9.58865 59.1249,18.70003 10.122,10.54129 25.231,36.22595 28.2756,48.06748 1.6932,6.58543 0.9729,12.57725 -3.815,31.73512 -2.5497,10.20213 -3.918,18.50147 -4.6164,28 -0.9024,12.27408 -1.3031,14.13759 -4.4117,20.52122 -6.3523,13.04432 -21.0127,32.35165 -63.0071,82.97878 -23.1397,27.89647 -35.0016,43.27775 -38.9016,50.4432 -1.5109,2.77606 -3.1212,8.06231 -3.8146,12.52223 -2.0185,12.98362 -0.5045,27.85636 11.6087,114.03457 9.9773,70.98228 13.0056,106.55739 12.2581,144 -1.2012,60.16804 -11.58,116.46667 -37.6079,204 -3.7615,12.65 -7.1459,24.85332 -7.521,27.1185 -1.5723,9.49431 3.2129,31.65349 13.5791,62.8815 8.182,24.6484 26.0171,69.9551 29.2776,74.3744 12.7719,17.3115 86.4854,50.7231 197.5926,89.5617 15.125,5.287 32.1361,11.2342 37.8025,13.2159 17.9607,6.2812 31.8891,15.8424 50.6975,34.8012 29.648,29.8851 58.4157,75.0717 75.7901,119.0468 22.6617,57.3575 21.5517,99.6126 -3.272,124.5537 -14.5641,14.633 -35.107,21.4453 -57.104,18.9365 -18.2656,-2.0832 -30.2799,-12.0175 -40.5023,-33.4902 -8.0286,-16.8644 -12.2822,-33.3605 -14.8267,-57.5 -1.543,-14.6382 -3.9648,-25.8153 -7.5819,-34.992 -7.7068,-19.5523 -19.0463,-34.4647 -30.663,-40.3244 -17.9933,-9.0762 -66.6147,-20.1178 -190.3402,-43.225 -28.325,-5.2901 -57.364,-11.1191 -64.531,-12.9533 -27.7869,-7.1116 -50.3196,-15.4068 -92.4562,-34.0369 -30.7198,-13.5822 -36.3645,-15.5852 -45.7415,-16.2309 -8.7779,-0.6045 -11.8636,0.5117 -17.09,6.1816 -13.0302,14.1361 -34.847,71.0728 -49.8283,130.0401 -3.3014,12.9948 -3.5268,14.823 -3.0255,24.5408 1.1772,22.8172 11.4449,64.7092 27.1598,110.8116 12.9173,37.8947 21.6646,55.3647 79.7067,159.1884 48.3787,86.5382 57.806,105.3835 57.806,115.5549 0,11.9745 -9.6962,21.6238 -24.4739,24.3556 -4.2176,0.7797 -175.1001,1.0287 -600.9598,0.8757 C 809.27985,1762.6687 536.325,1762.4608 530,1762.3244 Z m 1023.7706,-77.3943 c 4.0024,-1.3952 4.5341,-3.0776 2.5944,-8.2098 -0.8772,-2.3212 -12.525,-26.4953 -25.8839,-53.7203 -51.9148,-105.8006 -53.933,-112.1692 -71.4592,-225.5 -9.6035,-62.1004 -13.2541,-81.8909 -16.7253,-90.6724 -1.8391,-4.6525 -6.8379,-6.8276 -15.6911,-6.8276 -6.8162,0 -13.05,1.7562 -17.512,4.9335 -1.526,1.0865 -6.7576,8.6335 -11.626,16.771 -4.8683,8.1375 -16.3781,26.8751 -25.5772,41.6391 l -16.7257,26.8435 3.8368,5.9364 c 11.8476,18.3305 15.6791,38.7642 11.6024,61.8765 -9.6868,54.9176 -30.2742,115.6093 -50.8161,149.8058 -4.3608,7.2595 -4.9044,8.7586 -4.315,11.9005 0.7879,4.1999 5.0859,8.8938 9.056,9.8903 1.5318,0.3844 9.9309,-0.1049 18.6647,-1.0875 27.7564,-3.1225 30.7759,-2.094 58.8066,20.0286 10.175,8.0304 22.784,17.4721 28.0201,20.9816 21.755,14.5813 25.7541,15.0647 61.4799,7.4316 13.4239,-2.8681 20.9681,-2.2892 33.5,2.5705 9.0594,3.5132 19.0709,6.2277 23.6008,6.3991 1.1554,0.044 3.4818,-0.4019 5.1698,-0.9904 z"
         id="path1437" />
      <path
         style="fill:#000000;fill-opacity:1"
         d="m 519.34962,1761.9087 c -102.73039,-2.8448 -181.8148,-13.5298 -240.45732,-32.4876 -45.88999,-14.8353 -94.76969,-42.352 -136.55576,-76.8738 -13.89161,-11.4766 -38.39333,-35.9765 -49.883871,-49.8801 C 40.009012,1539.2102 10.908174,1464.1787 2.98882,1372 1.6183568,1356.0483 1.6034052,1309.4441 2.9631375,1291.9477 9.0872941,1213.145 29.908475,1133.2337 58.81937,1077.5725 c 13.062484,-25.1488 25.24366,-42.6862 39.656195,-57.0938 9.907835,-9.9045 17.195895,-14.4104 27.637335,-17.0873 18.76891,-4.81168 40.76519,5.301 44.89572,20.6406 3.47955,12.9221 -10.44173,57.5781 -33.47199,107.3698 -26.72878,57.7879 -39.724299,111.3847 -41.24438,170.1022 -1.876885,72.5001 15.54342,135.5309 53.20153,192.496 43.93013,66.4527 102.69033,104.9674 194.50622,127.4901 56.89062,13.9554 124.56091,20.7452 208.5,20.9202 47.86998,0.1 52.98983,-0.3466 78.5,-6.8457 41.69694,-10.6228 81.67872,-30.5826 99.65847,-49.7516 4.61453,-4.9198 5.23812,-6.1226 5.91375,-11.4064 0.4154,-3.2486 0.22143,-25.4816 -0.43106,-49.4066 -2.3132,-84.8188 -1.17398,-133.7585 4.4228,-190 13.41429,-134.7985 51.7495,-250.5044 114.30404,-345 39.07804,-59.03176 92.27633,-116.57271 157.632,-170.49975 73.638,-60.76109 164.4668,-117.90509 267.7881,-168.47619 49.7597,-24.35507 87.2597,-40.84773 147.9327,-65.06135 16.3464,-6.5236 30.6027,-12.33304 31.6805,-12.90987 3.0617,-1.63856 5.9047,-6.27515 7.7753,-12.68019 1.5143,-5.18544 1.7268,-11.84062 1.8156,-56.87265 0.062,-31.59729 0.5733,-56.32623 1.3431,-65 2.1839,-24.60583 6.0034,-54.59322 8.7249,-68.5 1.9687,-10.06012 2.7713,-17.8476 3.1501,-30.56239 0.7871,-26.41672 -0.7209,-36.17013 -19.1517,-123.87031 -18.0567,-85.92051 -20.7547,-103.38205 -20.8695,-135.0673 -0.055,-15.199321 0.3246,-21.759028 1.5818,-27.328249 3.8907,-17.236449 11.2546,-26.491306 22.8025,-28.657701 10.2564,-1.924105 27.5009,9.973839 80.6005,55.610699 28.0849,24.137871 43.4368,36.114291 50.1005,39.084951 4.9765,2.21848 11.1486,1.73163 16.0819,-1.26852 5.9594,-3.62411 8.3345,-11.5211 12.6321,-42.001129 3.5294,-25.031601 9.8437,-44.835765 19.3895,-60.813833 4.7635,-7.9734035 11.1478,-14.45495858 13.7612,-13.9708955 4.1431,0.7674 8.1484,12.0442955 21.7881,61.3446775 4.4107,15.942216 9.539,26.914038 13.5491,28.987754 1.9043,0.984748 5.4868,1.433239 10.6937,1.338722 6.6278,-0.120311 9.5957,0.443413 19.33,3.67155 12.5723,4.169274 13.8288,4.269604 43.5,3.473322 19.4481,-0.521924 22.8769,1.229862 33.5885,17.160252 3.2626,4.85216 7.2826,10.36046 8.9335,12.24065 5.7252,6.52064 13.4796,8.78643 53.478,15.62592 26.6271,4.55307 41.6593,8.02212 47.3567,10.9287 8.7709,4.47459 23.0541,23.30683 32.3544,42.65896 7.2369,15.05853 7.4504,19.87327 1.8538,41.80301 -2.9839,11.69197 -4.3536,19.61616 -5.1854,30 -0.7415,9.25686 -1.7608,15.58431 -2.963,18.39352 -4.4546,10.40906 -20.9142,32.93473 -48.3856,66.21764 -8.8523,10.725 -21.2969,25.8 -27.6546,33.5 -16.9037,20.47255 -24.7612,31.17483 -28.2661,38.5 -3.074,6.42428 -3.1098,6.68057 -3.0726,22 0.043,17.86434 0.367,20.81128 9.0615,82.5 7.2533,51.46414 11.4819,87.06088 13.9579,117.5 1.9693,24.20934 1.4995,63.78096 -1.0328,87 -5.2345,47.99545 -16.092,98.11479 -34.6614,160 -7.7812,25.93184 -8.2475,28.01322 -8.1777,36.5 0.1032,12.54104 3.7934,28.04264 13.807,58 8.6573,25.8996 23.8299,64.9504 28.0085,72.0874 4.1265,7.048 16.3414,15.3388 40.2679,27.3315 34.0861,17.085 89.1573,39.3313 152.2315,61.4946 13.475,4.7349 31.025,10.8995 39,13.699 22.9723,8.0644 35.0045,15.8751 54.5025,35.3807 40.1417,40.1573 76.4205,104.9053 89.0926,159.0068 3.5275,15.0601 4.4426,39.271 1.9496,51.5791 -5.3702,26.5131 -22.2657,44.4562 -47.9547,50.9281 -9.8679,2.4861 -27.741,2.7311 -35.3078,0.484 -24.4042,-7.2473 -41.4857,-40.3965 -46.7764,-90.7763 -1.9194,-18.2778 -4.9354,-28.9365 -12.555,-44.3703 -7.1871,-14.5578 -15.8374,-24.7508 -24.8516,-29.2837 -18.8701,-9.489 -60.6752,-19.1772 -177.0593,-41.0327 -35.4531,-6.6576 -69.8781,-13.4629 -76.5,-15.1228 -28.2796,-7.089 -50.597,-15.2241 -93.0399,-33.9149 -15.95,-7.024 -32.15,-13.7484 -36,-14.9431 -8.6149,-2.6733 -17.8275,-2.983 -22.1355,-0.744 -12.4623,6.4768 -29.2726,43.2527 -47.2892,103.4544 -8.8511,29.5756 -12.0753,43.5148 -12.0753,52.2057 0,16.3411 8.0319,53.5023 19.9424,92.2673 16.3162,53.1042 22.915,66.6961 95.9405,197.6137 39.585,70.9667 49.138,90.3902 49.0951,99.8221 -0.044,9.7024 -6.5521,18.0099 -17.5972,22.4626 l -5.8808,2.3708 -595.5,0.094 c -327.525,0.052 -608.16767,-0.2567 -623.65038,-0.6855 z M 1554.5321,1684.551 c 1.9074,-0.7969 3.4679,-1.9474 3.4679,-2.5566 0,-2.6073 -8.042,-19.9665 -26.1763,-56.5035 -29.0788,-58.5878 -39.5464,-82.0436 -49.2182,-110.2879 -7.8574,-22.9462 -12.3329,-45.8325 -25.6292,-131.0605 -7.2766,-46.6427 -10.7277,-65.5057 -13.7233,-75.0087 -1.5436,-4.8972 -2.1692,-5.6516 -6.1447,-7.4101 -3.5859,-1.5862 -5.9974,-1.8754 -12.7047,-1.5233 -12.915,0.6779 -15.7665,2.8834 -26.2842,20.3296 -4.6321,7.6835 -16.2098,26.4787 -25.7282,41.7671 l -17.3061,27.7971 3.6521,5.7029 c 2.0087,3.1366 5.0663,9.0779 6.7947,13.2029 9.5075,22.6906 8.8869,38.3083 -3.4802,87.5756 -11.2737,44.9115 -28.61,90.1967 -42.9562,112.2081 -4.4437,6.818 -4.8053,8.6036 -2.7335,13.4984 3.282,7.7543 7.3535,8.652 28.1289,6.202 25.0436,-2.9533 30.2837,-1.406 51.0091,15.062 24.2161,19.2418 37.2148,28.5502 46.3548,33.1948 12.9143,6.5626 18.1655,6.777 42.6452,1.7411 21.3687,-4.396 26.773,-4.3216 38.943,0.536 8.9658,3.5786 20.6771,6.8446 24.8391,6.9269 1.5302,0.03 4.3427,-0.5969 6.25,-1.3939 z"
         id="path1435" />
      <path
         style="fill:#000000;fill-opacity:1"
         d="M 538,1762.3252 C 423.335,1760.0559 337.94603,1748.999 276.396,1728.4505 201.50066,1703.4466 128.5443,1651.1025 81.312425,1588.4837 39.27289,1532.7487 13.792221,1466.1106 4.4615447,1387.5 2.2340803,1368.7337 1.3665686,1315.2936 2.9388623,1293.7003 11.276066,1179.2004 49.942424,1068.9157 98.925947,1019.9246 c 9.650943,-9.6524 19.152213,-15.1261 29.574053,-17.0376 15.67354,-2.8747 33.25524,4.0137 40.11337,15.7162 2.53701,4.3291 2.64042,5.0316 2.09419,14.2254 -1.15975,19.5202 -13.02178,54.6417 -33.49445,99.1714 -20.87149,45.3972 -31.95551,83.1635 -38.295102,130.4819 -2.602233,19.4229 -3.606044,57.87 -2.01086,77.0181 6.633982,79.6325 37.833792,148.75 90.971202,201.5301 51.36954,51.0241 123.49033,80.3382 231.12165,93.9413 41.78209,5.2807 78.30143,7.331 132.5,7.439 49.22865,0.098 53.03725,-0.2143 78.32738,-6.4242 38.26528,-9.3957 80.20274,-29.5432 98.02176,-47.0914 9.39851,-9.2556 8.71691,-5.044 8.15086,-50.3637 -1.32303,-105.9245 -0.44003,-148.8265 4.05525,-197.0311 14.13159,-151.5384 59.16003,-278.3907 134.88766,-380 47.07217,-63.16018 111.82343,-125.54888 187.55709,-180.71375 104.0455,-75.78742 219.5794,-136.89282 375.7956,-198.75675 11.4376,-4.52946 22.124,-9.35315 23.7476,-10.71932 2.0565,-1.73042 3.6353,-4.65692 5.2044,-9.64706 2.2001,-6.99679 2.246,-8.08034 1.9767,-46.66312 -0.4301,-61.63152 2.6118,-102.93085 10.9378,-148.5 5.9038,-32.312 4.2658,-51.84334 -10.0852,-120.2584 -2.7391,-13.05788 -7.9546,-37.9166 -11.59,-55.2416 -12.0993,-57.66058 -15.8163,-83.87515 -15.8101,-111.5 0,-20.826794 1.5582,-30.345215 6.6024,-40.455654 3.6201,-7.256024 9.3122,-12.318699 15.8207,-14.071256 11.2006,-3.016007 26.2881,6.992736 80.1088,53.142778 44.2238,37.920982 52.5924,43.740892 61.0679,42.469902 12.2689,-1.83983 15.2532,-8.05435 19.7298,-41.08577 3.7042,-27.331101 10.5614,-49.116484 20.458,-64.994948 4.9665,-7.968487 10.8009,-13.7931918 13.3285,-13.3064224 3.7654,0.7251507 8.0312,12.1504704 17.6605,47.3013704 11.6047,42.361664 12.9702,44.5 28.4154,44.5 6.2955,0 10.284,0.72611 19.0006,3.459048 14.7348,4.619852 18.6559,5.013582 35.4339,3.558012 24.1404,-2.094289 30.3831,0.5103 41.9033,17.48294 3.7332,5.5 8.5691,11.61861 10.7466,13.5969 5.9612,5.41598 16.2047,8.14952 54.0468,14.42262 21.0503,3.48951 37.3183,7.20272 43.4223,9.9112 9.6234,4.27009 22.7168,20.93607 33.3018,42.3883 7.7479,15.70229 7.9723,19.75042 2.3379,42.18098 -2.9323,11.67362 -4.522,20.74136 -5.4347,31 -0.785,8.82227 -1.9632,16.06345 -3.0091,18.49279 -4.5724,10.62046 -21.1561,32.88536 -54.0689,72.59163 -39.1273,47.20353 -48.0635,58.90469 -51.3114,67.18733 -1.3106,3.34229 -1.6528,7.68554 -1.6333,20.72825 0.027,17.93432 0.8818,25.90913 8.416,78.5 13.0574,91.14344 16.6939,130.41402 15.6494,169 -1.6016,59.16338 -12.3869,116.86479 -37.4768,200.5 -6.9716,23.23931 -7.6472,26.25356 -7.6211,34 0.034,9.95448 2.7158,23.06879 9.0834,44.41246 8.1476,27.30984 29.884,83.13074 34.7411,89.21794 4.0386,5.0614 21.6531,16.1919 39.8201,25.1619 39.6595,19.5821 95.8723,41.7388 179.6716,70.8188 32.8609,11.4033 43.8378,18.0189 64.6752,38.9784 42.8309,43.0816 81.5507,114.8371 90.606,167.9105 2.7517,16.1281 2.2348,38.4219 -1.1361,49 -6.93,21.7464 -20.9831,36.4059 -41.4029,43.1895 -7.3878,2.4543 -9.5465,2.706 -23.6305,2.7558 -14.7034,0.052 -15.7827,-0.08 -21,-2.5597 -22.6653,-10.7741 -37.5772,-42.1691 -42.4561,-89.3856 -2.9238,-28.2951 -12.1352,-50.2871 -27.4594,-65.5583 -6.91,-6.886 -8.4294,-7.8775 -17.0845,-11.1484 -24.5909,-9.2934 -60.5577,-17.2782 -172.7721,-38.3566 -33.9504,-6.3772 -68.4779,-13.325 -76.7279,-15.4395 -27.4967,-7.0476 -50.5528,-15.5302 -90.5188,-33.3031 -26.6915,-11.8696 -35.1751,-15.0973 -43.7874,-16.659 -13.8753,-2.516 -20.5344,2.7094 -31.6242,24.8157 -9.6508,19.2378 -20.5415,49.095 -31.059,85.1492 -10.2343,35.0835 -10.7993,37.9432 -10.1758,51.5 0.9706,21.102 11.0118,63.0472 25.2368,105.422 14.0368,41.8138 21.1417,56.0114 88.6159,177.078 30.2421,54.2625 40.8797,74.3352 46.8541,88.4121 3.796,8.9444 4.1545,10.4887 3.6714,15.8167 -0.8962,9.8831 -7.8016,17.6565 -19.1266,21.5311 -4.8103,1.6457 -37.2993,1.7421 -598.5864,1.7764 -326.425,0.02 -599.125,-0.075 -606,-0.2111 z m 1017.0497,-77.8509 c 1.6226,-0.8391 2.9503,-1.9999 2.9503,-2.5794 0,-2.4464 -6.0286,-15.8724 -17.0158,-37.8949 -33.9224,-67.9934 -49.5306,-102.528 -58.4905,-129.4159 -7.6793,-23.045 -11.953,-44.4397 -22.9887,-115.0841 -11.2,-71.6965 -14.675,-90.0581 -18.006,-95.1418 -4.5204,-6.8991 -27.887,-5.3575 -34.639,2.2854 -0.902,1.021 -6.2649,9.5064 -11.9176,18.8564 -5.6526,9.35 -16.9311,27.6761 -25.0632,40.7247 l -14.7857,23.7247 4.0208,6.6184 c 4.8885,8.0467 9.3101,18.8604 11.4771,28.0694 2.3779,10.105 1.4408,26.961 -2.5497,45.8628 -11.5663,54.7857 -29.3726,105.703 -47.3509,135.4003 -3.1299,5.1701 -5.6908,10.2471 -5.6908,11.2821 0,3.2712 2.6565,8.4023 5.5137,10.6497 3.4035,2.6772 7.0905,2.7494 26.2436,0.5141 16.7809,-1.9584 24.6985,-1.0783 32.8047,3.6464 2.7159,1.583 13.263,9.4612 23.438,17.5071 20.024,15.8339 30.8386,23.3885 41,28.6406 6.3146,3.2639 6.828,3.3573 18,3.2739 8.8287,-0.066 14.1713,-0.7204 23,-2.8177 6.325,-1.5026 14.875,-2.9664 19,-3.2531 6.8519,-0.4761 8.3642,-0.2031 17.5,3.1589 19.4962,7.1746 28.2209,8.7276 33.5497,5.972 z"
         id="path1433" />
      <path
         style="fill:#000000;fill-opacity:1"
         d="m 541,1762.3182 c -144.21075,-2.6176 -238.70148,-18.3607 -307.56733,-51.244 -52.33573,-24.9902 -105.08189,-65.4716 -139.935413,-107.397 -53.500479,-64.3559 -83.14479,-141.0456 -90.4804061,-234.0724 -1.3099407,-16.6121 -1.3004016,-58.1255 0.017488,-76.1048 6.1617745,-84.0621 29.8069951,-170.9376 61.7834201,-227 11.484082,-20.1344 27.994425,-41.9465 38.484471,-50.8425 9.75603,-8.2736 22.43938,-13.5977 32.50036,-13.6427 11.99725,-0.054 26.81027,7.1516 32.2113,15.6681 2.59129,4.0861 2.98491,5.6414 2.97705,11.7629 -0.0237,18.4742 -12.83438,57.0425 -34.72817,104.5542 -4.94217,10.725 -11.24681,25.575 -14.01031,33 -13.06522,35.1037 -22.10958,76.0899 -25.334014,114.8058 -1.49165,17.9103 -0.644669,59.2981 1.538814,75.1942 8.02227,58.4034 28.12367,107.7051 62.67945,153.7307 60.87882,81.0858 156.99169,119.8646 322.86329,130.2661 28.55817,1.7908 98.70564,2.4829 112,1.1049 21.28237,-2.2059 44.51034,-7.917 67.5,-16.5962 35.93706,-13.5673 69.21716,-35.44 72.56944,-47.695 0.88307,-3.2282 0.95961,-14.1025 0.30484,-43.3105 -1.87412,-83.6008 -0.88876,-141.3995 3.19652,-187.5 12.45716,-140.5735 50.96537,-259.3498 115.90425,-357.5 56.588,-85.52845 140.64081,-165.62074 251.02495,-239.19677 92.8797,-61.90852 190.9612,-111.91643 323.2388,-164.80684 16.0814,-6.43003 30.3779,-12.58692 31.77,-13.68197 3.586,-2.82074 5.1139,-6.2548 7.0683,-15.88598 1.5105,-7.44369 1.6294,-12.57614 1.017,-43.92844 -1.0653,-54.54324 2.229,-99.2517 10.8313,-147 6.1729,-34.26287 4.6291,-48.24427 -16.2865,-147.5 -16.154,-76.65913 -19.0504,-93.59937 -21.1524,-123.714993 -1.8809,-26.947089 1.2956,-48.067427 8.8893,-59.104531 4.1603,-6.046805 10.9639,-10.065248 17.0402,-10.064609 10.5478,0.0011 28.6864,12.56888 72.0878,49.947914 27.9177,24.043781 35.7379,30.549049 44.5063,37.022539 10.6987,7.89869 15.1615,9.83997 20.7087,9.00812 10.6731,-1.60053 14.6062,-7.78008 17.7864,-27.945708 1.0971,-6.956802 2.8886,-18.3179 3.9811,-25.246883 2.4197,-15.34687 8.153,-32.950322 15.1993,-46.668209 C 1648.4447,10.495338 1656.1671,1 1659.2346,1 c 3.859,0 7.9984,10.908729 18.3614,48.38911 7.7313,27.962114 11.6426,38.080191 16.0652,41.559018 2.1859,1.719425 4.0479,2.051872 11.4921,2.051872 7.57,0 10.5446,0.549594 20.1152,3.716516 12.2192,4.043354 14.2451,4.194094 43.7315,3.254004 18.1525,-0.578743 22.4915,1.68635 32.9529,17.20231 7.0902,10.51603 11.3213,15.35551 15.2039,17.38999 4.9687,2.60361 17.2938,5.38325 46.3356,10.44997 44.5644,7.77482 48.5387,9.05863 57.4138,18.54614 14.869,15.89492 29.0938,42.68243 29.0938,54.78792 0,2.91565 -1.7846,12.48701 -3.9657,21.2697 -3.9491,15.90196 -6.0105,29.24886 -6.0261,39.01765 -0.01,3.99351 -0.9103,6.9365 -4.0684,13.24618 -7.0775,14.14043 -17.3214,27.67386 -59.384,78.45339 -26.7547,32.29923 -39.5839,49.0477 -43.1975,56.39426 -2.0834,4.23576 -2.6712,7.18237 -3.097,15.52507 -0.7413,14.52471 0.8573,30.32951 8.7239,86.2469 12.9482,92.03831 15.4533,117.87417 15.4166,159 -0.035,39.54008 -2.8575,65.88499 -11.915,111.22386 -6.7952,34.01429 -12.6372,56.50987 -29.6767,114.27614 -3.6082,12.23241 -3.9332,14.25331 -3.4608,21.5229 1.0523,16.1959 8.8875,44.16676 22.6832,80.9771 10.7698,28.7364 18.1941,46.1576 21.3635,50.1297 1.4636,1.8342 7.4857,6.5217 13.3825,10.4166 30.4511,20.1135 106.9282,51.7629 211.6526,87.5906 8.7621,2.9977 19.3371,7.226 23.5,9.3963 48.8618,25.4739 107.8403,114.1379 124.7014,187.4668 2.4475,10.6445 2.7653,14.0332 2.8134,30 0.062,20.6928 -0.923,25.8321 -7.5404,39.3327 -7.0671,14.418 -19.4364,24.883 -36.4151,30.8088 -7.3584,2.5681 -9.1769,2.79 -22.9904,2.8055 -18.6259,0.021 -23.241,-1.4668 -33.068,-10.6595 -11.1916,-10.4692 -19.6709,-26.8672 -25.3371,-48.999 -2.6978,-10.5376 -3.3705,-14.7391 -6.1302,-38.2885 -3.5317,-30.1375 -20.1382,-59.7651 -38.3648,-68.4465 -18.9533,-9.0276 -62.027,-18.901 -174.5999,-40.022 -72.3559,-13.5755 -82.162,-15.7733 -107,-23.9816 -21.0535,-6.9577 -34.8635,-12.4619 -66.2604,-26.409 -29.2128,-12.9768 -38.0378,-16.0091 -46.812,-16.0845 -5.405,-0.046 -7.2365,0.3877 -10.3115,2.4436 -11.323,7.5707 -28.1549,44.7538 -44.0418,97.2921 -14.3735,47.5335 -15.4349,54.7728 -11.5396,78.7079 4.9667,30.5186 21.7493,88.7333 34.5245,119.757 8.3089,20.1776 26.2506,54.2513 66.737,126.743 40.9901,73.3934 56.3688,102.5019 60.1151,113.7849 5.3133,16.0027 -4.8251,29.5717 -24.4113,32.6713 -4.4113,0.6981 -195.2883,0.9609 -594,0.8179 -323.125,-0.116 -593.575,-0.3211 -601,-0.4559 z m 1013.4605,-77.3032 c 1.4249,-0.5417 2.8544,-1.672 3.1766,-2.5116 0.9483,-2.4714 -2.6005,-10.3197 -28.7147,-63.5034 -30.8106,-62.7483 -43.8957,-93.1448 -50.7966,-118 -3.3757,-12.1583 -9.6162,-45.1765 -15.12,-80 -12.1576,-76.922 -14.1488,-88.8985 -16.6087,-99.8968 -3.4948,-15.6252 -4.509,-17.8342 -9.0615,-19.7363 -8.5541,-3.5742 -24.6625,-0.9235 -30.1668,4.9639 -1.1155,1.1931 -5.9506,8.6942 -10.7448,16.6692 -4.7941,7.975 -16.0948,26.356 -25.1126,40.8466 l -16.3959,26.3467 2.979,4.6533 c 13.0171,20.3338 16.6332,39.7661 12.0924,64.9834 -9.7567,54.1842 -30.0958,114.0978 -49.9297,147.0796 -2.7815,4.6253 -5.0555,9.5753 -5.0535,11 0,3.3054 3.1555,8.4934 6.4818,10.6729 2.8211,1.8484 10.8334,1.6877 29.0145,-0.582 14.1696,-1.769 23.1546,-0.057 32.261,6.1472 2.6064,1.7757 11.939,8.9211 20.739,15.8785 19.5447,15.4523 29.8238,22.6483 39,27.3026 12.839,6.512 16.8106,6.5617 45.9015,0.5744 17.8636,-3.6766 22.5664,-3.526 34.0985,1.0918 15.1361,6.061 26.3147,8.1665 31.9605,6.02 z"
         id="path1431" />
      <path
         style="fill:#000000;fill-opacity:1"
         d="M 549,1762.2927 C 394.45772,1760.2261 292.48418,1742.5942 223.30858,1705.9785 141.84608,1662.8593 83.256933,1605.1348 46.32444,1531.6062 23.720136,1486.6036 11.088185,1442.3715 4.3132895,1384.5 1.7879915,1362.9288 1.7856795,1301.3429 4.3092914,1278 16.442417,1165.7709 51.898003,1068.2962 97.683224,1021.2958 110.58978,1008.0467 121.63281,1002.6822 136,1002.6822 c 13.56918,0 25.29158,5.3507 31.55369,14.4027 2.77775,4.0153 2.94219,4.8069 2.87432,13.837 -0.14023,18.6581 -11.25092,52.7083 -31.67685,97.0781 -24.16677,52.4957 -36.32557,95.7854 -41.262905,146.9106 -1.730986,17.9241 -1.944286,52.5477 -0.425628,69.0894 7.134583,77.712 40.108103,148.3353 93.203203,199.6242 49.14056,47.469 117.02953,75.6977 216.00575,89.8168 46.05259,6.5695 83.24101,8.8854 144.22842,8.9817 46.96155,0.074 49.49921,-0.017 61,-2.197 26.94932,-5.1076 51.29767,-13.1903 76,-25.2288 26.1056,-12.7224 45.46843,-27.3112 48.51974,-36.5567 0.98789,-2.9933 1.13079,-11.1487 0.62918,-35.9066 -2.17517,-107.3587 -1.91886,-131.6077 1.92406,-182.0336 11.15464,-146.3686 50.14385,-270.2649 116.62984,-370.6155 74.51536,-112.46976 196.23728,-215.50164 360.79138,-305.39294 62.8795,-34.34929 126.9648,-64.07207 208.2968,-96.60807 19.1351,-7.65479 35.6906,-14.47257 36.7901,-15.15064 1.0995,-0.67807 3.0871,-3.48285 4.417,-6.23285 4.3191,-8.93156 4.8621,-15.96962 4.1274,-53.5 -1.0815,-55.24734 2.5955,-104.28822 11.0969,-148 2.1637,-11.12499 2.6251,-16.31482 2.6225,-29.5 0,-22.34418 -2.9048,-41.38984 -14.8483,-97.5 -11.7402,-55.15556 -19.3829,-94.10647 -21.8776,-111.5 -8.7452,-60.971734 -2.898,-94.885146 17.3988,-100.912656 5.9994,-1.78161 9.7335,-1.002153 18.6904,3.901419 12.4095,6.793685 28.072,19.147089 70.3464,55.48401 39.5106,33.961197 46.5941,38.298837 57.0462,34.932387 8.6317,-2.78016 12.0613,-11.16882 15.9057,-38.90516 3.8458,-27.746289 8.0538,-42.501117 17.1981,-60.303318 C 1648.1111,11.144803 1656.1318,1 1658.7772,1 c 4.2007,0 8.1836,10.149098 18.1338,46.208184 7.9471,28.80034 9.189,32.580404 12.6364,38.462947 3.7781,6.446882 5.6251,7.326402 15.4251,7.345399 6.9922,0.01355 10.5079,0.653157 19.5275,3.552591 12.9942,4.177109 21.6736,5.030459 37,3.637779 22.6251,-2.055908 28.7794,0.49442 39.9967,16.57469 14.0222,20.10118 14.4282,20.28748 61.5033,28.21841 38.1664,6.43004 47.5298,9.0741 54.8044,15.47578 9.041,7.95606 22.3393,28.18481 28.7334,43.70773 4.5311,11.00024 4.4754,15.49174 -0.4328,34.90813 -3.9955,15.80558 -6.0966,29.20086 -6.103,38.90836 -0.01,11.74878 -12.39,30.57964 -49.9741,76 -49.3284,59.61323 -56.9757,69.86644 -58.9397,79.02434 -2.7549,12.84574 -1.1004,32.54941 8.395,99.97566 16.2694,115.529 18.4147,153.16134 11.9428,209.5 -5.1589,44.9097 -15.0372,90.07856 -32.6298,149.20157 -8.889,29.8729 -9.1644,31.09894 -9.1638,40.79843 4e-4,7.33643 0.7337,13.19628 2.753,22 6.5677,28.6338 35.0969,105.2475 41.7804,112.1989 17.9806,18.7015 100.5032,54.5622 219.463,95.369 31.8164,10.9139 40.354,15.9839 61.236,36.3643 31.9539,31.1865 60.8074,75.9204 79.5606,123.3497 18.3608,46.437 20.5063,84.9781 6.1589,110.6338 -11.0378,19.7374 -33.2925,31.5843 -59.332,31.5843 -15.7055,0 -24.7915,-3.6319 -34.4318,-13.7632 -14.5657,-15.3075 -25.0012,-44.3039 -27.8811,-77.4715 -2.335,-26.8904 -12.8997,-52.6821 -27.6019,-67.3843 -6.4467,-6.4467 -11.2693,-8.9885 -26.168,-13.792 -26.0097,-8.3857 -63.653,-16.5126 -162.1695,-35.0111 -33.825,-6.3514 -67.8,-13.1038 -75.5,-15.0053 -28.516,-7.0423 -50.6183,-15.1025 -93.7876,-34.2024 -32.4382,-14.3521 -39.1069,-16.6701 -48.2841,-16.7831 -6.0822,-0.075 -7.6394,0.2885 -11.1297,2.5975 -11.2986,7.4745 -27.9757,44.6003 -44.1639,98.3154 -10.4113,34.5465 -13.1347,46.3503 -13.1347,56.9284 0,29.3183 22.2614,109.7725 42.608,153.9881 8.4433,18.3484 26.4352,51.9296 60.8549,113.5835 41.564,74.4511 53.8164,97.6035 59.271,112 5.5027,14.5236 -1.2421,27.4176 -16.7339,31.99 -6.3704,1.8803 -18.1817,1.9244 -592.5,2.2143 -322.3,0.1626 -592.975,0.2024 -601.5,0.088 z m 1005.4605,-77.2777 c 1.4249,-0.5417 2.869,-1.7102 3.2091,-2.5965 0.9568,-2.4933 -2.1119,-9.2867 -28.1953,-62.4185 -26.5809,-54.1453 -33.3701,-69.0154 -42.3611,-92.7817 -11.2979,-29.8643 -14.5149,-45.2337 -29.5588,-141.2183 -11.7706,-75.0996 -13.3597,-81.7394 -20.2684,-84.6876 -4.687,-2.0002 -14.2621,-2.2071 -20.4297,-0.4414 -7.0776,2.0262 -10.7581,5.7994 -18.8017,19.2752 -4.0555,6.7946 -15.4365,25.3106 -25.2909,41.1467 l -17.9171,28.793 3.041,4.739 c 5.049,7.8682 10.0038,19.564 12.232,28.8738 2.7809,11.6188 2.1756,25.3335 -2.0115,45.5797 -11.3808,55.029 -30.1541,108.2545 -49.1019,139.2115 -4.3203,7.0584 -4.8349,10.0068 -2.5262,14.4715 3.8734,7.4903 7.6473,8.167 30.6162,5.4902 14.845,-1.7301 22.9414,-1.069 30.2237,2.4678 2.2991,1.1167 11.508,7.7791 20.4642,14.8054 42.8033,33.5799 51.8991,38.3649 68.9094,36.2511 4.5446,-0.5647 13.3352,-2.2062 19.5347,-3.6478 6.6814,-1.5536 14.5298,-2.6632 19.2718,-2.7245 7.008,-0.091 9.2359,0.3704 17.9668,3.7188 16.04,6.1516 25.3088,7.854 30.9937,5.6926 z"
         id="path1429" />
      <path
         style="fill:#000000;fill-opacity:1"
         d="m 536.5,1761.8602 c -152.35897,-2.785 -248.52729,-20.5881 -319,-59.0546 C 98.359005,1637.7743 27.451552,1538.1315 7.6367342,1407.895 3.2027315,1378.7517 2.5028596,1368.3209 2.5108732,1331.5 2.5199485,1289.8002 4.3811751,1268.3917 11.595964,1227 27.1463,1137.7868 59.770901,1060.1868 98.276242,1020.8245 110.84152,1007.9795 121.53159,1002.8707 136,1002.7962 c 9.48064,-0.049 16.3166,1.9911 24.2246,7.2292 10.91244,7.2281 12.89611,15.8629 8.31956,36.2146 -4.89621,21.7731 -15.38911,50.4375 -30.29517,82.76 -18.49048,40.095 -28.67252,71.2656 -35.68392,109.2404 -4.626734,25.0591 -5.769,37.1243 -6.273082,66.2596 -0.498211,28.7959 0.581012,45.8756 4.243812,67.1623 14.27481,82.959 61.71596,158.4621 126.9642,202.0648 47.2566,31.5797 112.57728,52.1875 197,62.1509 40.49461,4.7792 63.66179,6.1087 118,6.772 52.03731,0.6351 60.12071,0.095 83.98087,-5.6067 41.37003,-9.8868 83.67615,-30.1314 102.67971,-49.1349 5.8308,-5.8308 6.77513,-7.2969 7.40481,-11.4959 0.39695,-2.6471 0.31963,-23.5102 -0.17183,-46.3627 -2.37386,-110.3826 0.0903,-170.9035 9.67196,-237.5498 20.57564,-143.1158 69.33793,-259.5872 149.4679,-357.01223 29.73993,-36.15893 71.08147,-77.3327 111.68138,-111.22812 74.407,-62.11987 162.0354,-117.81615 267.6679,-170.12874 51.8728,-25.68904 85.1213,-40.41872 150.4863,-66.66799 32.841,-13.1883 37.0768,-15.14219 38.771,-17.88439 5.5909,-9.04885 7.2021,-25.73004 5.6969,-58.98003 -1.93,-42.63393 2.3307,-100.09233 10.7532,-145.01252 6.3116,-33.66219 4.7014,-48.33288 -16.1916,-147.51744 -19.0634,-90.4995 -22.0041,-110.48524 -21.114,-143.498286 0.3644,-13.511696 1.0048,-20.803251 2.1971,-25.015804 5.8845,-20.789777 18.3376,-29.041806 33.3087,-22.072019 11.7585,5.474157 27.0778,17.168786 64.2097,49.017006 40.9881,35.155693 51.7763,43.258483 58.8602,44.208643 5.204,0.698 11.2755,-1.19654 14.4486,-4.50847 4.1877,-4.37107 6.3628,-12.17463 9.6125,-34.487133 3.3744,-23.168118 5.7026,-33.209118 10.7155,-46.212477 6.1517,-15.957458 15.1706,-30.7210294 20.5143,-33.5808558 1.5734,-0.8420664 2.4254,-0.7073677 3.8859,0.6143261 2.7866,2.5218597 7.2626,14.1147757 11.956,30.9665297 2.2977,8.25 5.9465,21.3 8.1085,29 4.4094,15.704358 9.0671,25.959163 13.1186,28.882904 2.2246,1.605367 4.1558,1.927617 10.6015,1.769021 6.6495,-0.163611 9.663,0.376072 19.2799,3.452852 12.9609,4.146633 21.6956,5.015503 37.3985,3.720143 11.6868,-0.96407 21.9843,-0.16009 26.2584,2.05014 4.4941,2.324 8.7238,6.93152 15.1871,16.54394 8.1213,12.07806 12.1462,15.43003 22.2543,18.53341 4.5651,1.40159 21.3179,4.80906 37.2284,7.57216 45.0158,7.8177 50.1014,9.45967 58.9707,19.03959 9.735,10.51493 22.6739,32.17727 27.0103,45.22079 2.3638,7.10992 1.9927,11.73262 -2.3592,29.38877 -4.1869,16.98684 -6.0495,28.93074 -6.0508,38.80005 0,13.33501 -10.4162,28.63343 -61.757,90.71872 -31.0918,37.59854 -41.6987,51.41208 -45.1309,58.77444 -2.2549,4.83701 -2.6254,7.13227 -2.9448,18.24524 -0.454,15.79559 1.0744,30.23294 9.3998,88.78783 11.444,80.48949 14.9552,116.96212 14.8253,154 -0.2163,61.645 -10.883,121.21877 -37.9588,212 l -7.6055,25.5 0.5295,9.5 c 0.8938,16.03936 9.1995,45.36381 23.6499,83.5 11.757,31.0278 17.7528,44.6545 21.2485,48.2915 18.0468,18.776 98.1505,53.6066 219.1033,95.2703 12.5722,4.3307 25.8472,9.5022 29.5,11.4923 23.0492,12.5574 52.5891,43.329 75.3736,78.5165 37.8733,58.4901 57.0978,118.358 50.3614,156.8333 -4.728,27.004 -19.6528,44.0954 -45.6287,52.2521 -6.3481,1.9933 -9.5671,2.344 -21.5177,2.344 h -14.0529 l -7.6266,-3.7698 c -5.7161,-2.8254 -9.1322,-5.4128 -13.6363,-10.3283 -13.7899,-15.0491 -24.2728,-44.615 -27.1078,-76.4538 -1.6703,-18.7598 -6.0507,-33.8977 -14.1638,-48.9481 -5.0044,-9.2835 -13.24,-19.6056 -18.6141,-23.3298 -15.2935,-10.5984 -54.3224,-19.9673 -186.2456,-44.7084 -32.175,-6.0342 -65.025,-12.5897 -73,-14.5679 -27.7658,-6.8872 -51.2157,-15.4578 -93.7578,-34.267 -38.2541,-16.9134 -47.3542,-19.3827 -56.509,-15.3331 -7.9446,3.5143 -16.9455,17.9872 -27.6009,44.3809 -11.2621,27.8962 -27.9996,82.0339 -32.1846,104.1009 -3.2307,17.0358 11.0017,78.7689 30.6655,133.0108 10.6568,29.3965 22.8574,53.3561 71.5127,140.4374 41.9114,75.0114 55.2879,100.2326 60.6082,114.2762 2.8258,7.4588 2.6509,13.3776 -0.5816,19.6816 -2.6445,5.1575 -5.5463,7.6822 -12.6554,11.0106 -5.7198,2.678 -6.7599,2.819 -22.4971,3.0507 -39.6293,0.5833 -1155.97469,0.6936 -1187.5,0.1173 z m 1019.6291,-77.7637 2.3507,-1.9034 -1.9818,-5.8466 c -1.0899,-3.2156 -10.6904,-23.3965 -21.3343,-44.8465 -52.9427,-106.6921 -58.0751,-121.738 -72.1458,-211.5 -13.9662,-89.0945 -16.7642,-104.6705 -20.3409,-113.2306 -2.0949,-5.0137 -6.4245,-7.0546 -15.1718,-7.1516 -8.7291,-0.097 -16.1103,2.3306 -20.2354,6.6546 -1.6935,1.7752 -5.4465,7.2776 -8.3399,12.2276 -2.8934,4.95 -13.9809,23.0229 -24.6389,40.1619 l -19.3782,31.162 5.0726,8.838 c 10.5159,18.322 13.9003,36.4972 10.5837,56.8381 -8.7567,53.7054 -32.1739,122.7526 -52.1116,153.6543 -4.0899,6.339 -4.2441,6.8487 -3.2528,10.7542 0.6652,2.6205 2.3292,5.2311 4.6118,7.2352 l 3.5711,3.1355 10.5562,-0.6694 c 5.8059,-0.3682 14.1429,-1.0136 18.5266,-1.4343 10.3797,-0.9961 19.2222,0.1283 25.3238,3.2202 2.699,1.3677 9.812,6.3543 15.8066,11.0813 35.1344,27.7051 46.1443,35.0885 57.725,38.7115 7.458,2.3331 11.0771,2.0488 35.3333,-2.7756 9.4375,-1.8771 18.5719,-3.4129 20.2988,-3.4129 1.7269,0 9.7553,2.214 17.8409,4.9201 17.528,5.8661 17.3317,5.817 23.8404,5.9639 3.6911,0.083 5.8016,-0.4203 7.4899,-1.7875 z"
         id="path1427" />
      <path
         style="fill:#000000;fill-opacity:1"
         d="m 541,1761.8561 c -143.58453,-2.4015 -236.71682,-17.7176 -306.5,-50.4053 -4.4,-2.0611 -14.075,-7.1227 -21.5,-11.2481 C 151.55649,1666.0644 102.83251,1621.8982 67.706055,1568.5 9.691695,1480.3083 -10.521949,1365.8188 9.6196202,1239.5 24.892104,1143.7179 57.009067,1064.1656 97.289824,1022.3447 c 8.575406,-8.9033 11.242836,-11.0073 18.538046,-14.6222 l 8.52135,-4.2225 h 11.57539 c 10.64389,0 12.07708,0.2317 17.8097,2.8795 6.51832,3.0107 14.47996,10.4237 16.27995,15.158 4.73766,12.461 -8.4771,56.9785 -32.05111,107.9729 -14.66017,31.7123 -23.231,55.5855 -30.4087,84.7004 -12.871058,52.2089 -15.382093,109.0705 -6.99012,158.2892 7.22899,42.3978 23.67587,83.7845 47.88619,120.5 29.00502,43.9868 61.1775,73.3017 105.98442,96.5707 70.35986,36.5392 176.90865,54.7895 310.56506,53.1954 38.70585,-0.4616 44.18103,-1.02 66.5,-6.7823 39.02471,-10.0753 79.54658,-29.9834 97.65967,-47.9796 5.85619,-5.8184 6.74832,-7.2078 7.39448,-11.5167 0.40415,-2.6951 0.3323,-24.7198 -0.15967,-48.9438 -1.58243,-77.9177 -0.77836,-129.7068 2.66334,-171.5437 12.13866,-147.5562 51.37593,-269.5495 119.01872,-370.04324 25.31068,-37.60288 50.2674,-67.36801 88.88652,-106.0123 43.36388,-43.39214 83.81484,-77.01865 138.53694,-115.16449 94.9636,-66.19753 204.7624,-123.38316 341.5,-177.86073 18.425,-7.34069 34.4486,-14.29119 35.608,-15.44555 6.7673,-6.73772 9.0308,-25.51638 7.35,-60.97604 -2.0678,-43.62233 2.1741,-100.20731 10.8323,-144.49765 2.2428,-11.47286 2.637,-16.12777 2.6256,-31 -0.019,-24.73402 -1.6547,-34.83836 -18.9403,-117 -18.2727,-86.85352 -21.4427,-107.32535 -21.4649,-138.61901 -0.021,-30.039119 5.4856,-45.915386 18.1995,-52.468619 12.7679,-6.581104 24.9671,0.975601 85.9658,53.250892 28.6573,24.558947 42.7765,35.646667 49.6395,38.981587 5.249,2.55057 12.9385,2.16758 17.009,-0.84716 6.7273,-4.98253 8.4576,-10.45018 12.6724,-40.044348 1.4292,-10.035662 3.9175,-22.943543 5.5294,-28.68418 5.8836,-20.953375 16.9625,-42.2395878 24.5835,-47.2330544 2.5907,-1.69751177 2.6994,-1.67796682 4.9009,0.8814001 3.8785,4.5090278 7.573,15.7678003 19.5914,59.7041713 3.9138,14.307577 9.1541,25.618799 13.2248,28.545714 2.3648,1.700298 4.0925,1.986565 10.5676,1.750983 6.7199,-0.244485 9.2483,0.217066 19.1731,3.5 L 1735.5,100.5 l 22,-0.29114 c 14.6253,-0.19355 23.428,0.10237 26.2601,0.88277 5.7083,1.57301 12.2917,7.57222 18.4378,16.80162 6.2895,9.4447 11.1935,14.70397 16.0463,17.20887 5.2147,2.69161 16.1136,5.12923 46.2558,10.34543 42.5347,7.36075 48.6489,9.41131 57.4266,19.25925 9.9944,11.21295 22.2642,32.087 26.5601,45.18539 2.2142,6.75103 1.6404,13.30157 -2.536,28.95064 -3.5454,13.28493 -5.9365,28.1147 -5.9448,36.86966 -0.014,15.07479 -9.9581,29.88746 -62.9595,93.78751 -26.6317,32.10789 -39.8838,49.31236 -43.7354,56.77943 -2.4318,4.71449 -2.734,6.50372 -3.1173,18.45705 -0.5382,16.78001 0.3786,25.67584 8.8906,86.26352 11.8986,84.69343 15.4,120.51625 15.2964,156.5 -0.1029,35.77513 -3.626,68.51177 -11.8751,110.34218 -6.115,31.00865 -12.8684,56.93827 -30.6128,117.53695 -3.4955,11.93756 -3.6574,18.55743 -0.8138,33.29232 5.6866,29.46756 34.856,109.39705 43.0921,118.08005 17.2052,18.139 97.4682,53.2937 212.8289,93.2177 16.225,5.6151 32.2,11.7086 35.5,13.5411 32.8644,18.2494 70.2593,62.8071 97.0202,115.6041 40.0418,78.9992 40.5222,138.5729 1.3218,163.9093 -18.0254,11.6504 -46.0109,14.4985 -62.142,6.3243 -20.3117,-10.2927 -35.7284,-44.0449 -39.6688,-86.848 -1.2614,-13.7017 -2.7544,-20.8416 -6.5868,-31.5 -5.6747,-15.7819 -14.7337,-30.6568 -23.1945,-38.0855 -13.7198,-12.0461 -52.1341,-21.4607 -201.7315,-49.4405 -50.6912,-9.4809 -57.4723,-10.9319 -75.0184,-16.052 -23.5915,-6.8842 -42.9771,-14.3008 -77,-29.459 -39.9994,-17.8208 -50.2958,-20.5536 -59.4923,-15.7899 -7.5002,3.885 -15.0783,15.8582 -25.446,40.2039 -10.6884,25.0988 -31.3631,91.6843 -34.0457,109.6488 -2.2373,14.9822 9.04,65.9337 25.4585,115.0229 14.1871,42.4175 21.2996,56.8131 80.0157,161.9513 41.8432,74.9253 55.3553,100.6934 58.6182,111.7869 3.887,13.2155 -3.9559,25.411 -19.1084,29.7132 -4.2872,1.2172 -87.4761,1.4609 -583.5,1.7097 -318.175,0.1596 -595.825,4e-4 -617,-0.3537 z m 1015.0867,-77.7252 c 2.1783,-1.7639 2.237,-2.1158 1.0427,-6.25 -0.6961,-2.4095 -12.2172,-26.6559 -25.6023,-53.8809 -39.4649,-80.2702 -48.8776,-103.3464 -56.9016,-139.5 -3.4621,-15.5992 -10.3219,-55.9358 -18.6221,-109.5 -6.718,-43.3537 -10.6628,-63.3659 -13.6471,-69.2331 -2.1787,-4.2833 -6.7873,-6.1473 -15.3563,-6.2111 -9.0045,-0.067 -15.3229,2.0848 -19.6929,6.7066 -1.6837,1.7807 -6.5606,9.0876 -10.8375,16.2376 -4.277,7.15 -15.3765,25.2237 -24.6656,40.1637 l -16.8892,27.1636 4.9067,8.5574 c 11.205,19.5417 14.1678,36.7826 10.2281,59.5186 -5.5404,31.9728 -16.1011,70.4523 -27.7462,101.0967 -6.3607,16.7384 -18.2313,41.6368 -24.2397,50.8426 -4.3513,6.6667 -4.4082,7.2695 -1.3176,13.9515 2.9315,6.338 10.0475,7.6615 27.4848,5.1118 4.2633,-0.6234 12.3679,-0.9453 18.0102,-0.7155 14.1254,0.5754 13.2535,0.099 42.881,23.4227 19.387,15.2621 30.7245,23.001 40.427,27.5954 9.3816,4.4425 17.2819,4.4046 38.4509,-0.1847 20.4475,-4.4329 26.7749,-4.4356 38,-0.016 17.6898,6.9647 29.6017,8.755 34.0867,5.1233 z"
         id="path1425" />
      <path
         style="fill:#000000;fill-opacity:1"
         d="m 564,1762.2981 c -107.39409,-0.9639 -192.77218,-9.1785 -253.19397,-24.3609 -51.67566,-12.9848 -88.8974,-29.6935 -133.91949,-60.1159 -22.59549,-15.2682 -39.66528,-29.4677 -60.4158,-50.2567 -24.0532,-24.0979 -39.712439,-43.7822 -55.33776,-69.562 C 28.90917,1504.8374 10.716955,1447.2316 3.8135196,1376.5 1.887014,1356.7613 2.1870669,1302.5176 4.3417845,1281 11.984643,1204.6763 30.519603,1135.1077 57.623659,1081.0132 c 18.611642,-37.1453 41.11074,-65.2091 59.207131,-73.8509 7.45397,-3.5595 7.99197,-3.6623 19.16921,-3.6623 10.3355,0 12.06909,0.2668 17.12001,2.6352 6.96148,3.2641 13.3733,8.9513 16.08536,14.2674 1.76984,3.4691 1.97476,5.1717 1.45255,12.0682 -1.47472,19.4755 -13.85073,55.9318 -33.54088,98.8022 -13.78879,30.0217 -20.82365,49.1361 -27.57169,74.915 -24.190289,92.4121 -17.021553,181.9979 20.42934,255.3002 55.95374,109.5178 148.15032,161.0508 316.52531,176.921 35.46803,3.343 53.02816,4.0321 103.5,4.0611 l 51.5,0.03 13.58129,-2.7479 c 31.76284,-6.4267 63.29891,-18.0644 87.67143,-32.3531 17.34676,-10.1698 30.71066,-21.4358 33.39992,-28.1567 1.39363,-3.4829 1.34648,-27.6511 -0.15752,-80.7423 -3.20201,-113.031 6.11815,-210.8199 28.46644,-298.6755 21.62603,-85.0162 55.83596,-160.8805 101.68049,-225.4877 23.90818,-33.69304 46.24599,-59.82196 80.30318,-93.93203 49.99373,-50.07137 98.65037,-89.22893 166.05477,-133.63657 94.1918,-62.05579 192.4264,-111.56725 327,-164.81211 14.5824,-5.7696 21.7854,-9.14513 23.57,-11.04552 6.4933,-6.91455 8.7575,-26.11032 7.0436,-59.71452 -2.1128,-41.42309 1.9673,-98.41444 10.1443,-141.69605 2.919,-15.45065 3.205,-18.68606 3.1373,-35.5 -0.1042,-25.88798 -1.5613,-34.51839 -22.7923,-135 -13.5138,-63.95795 -16.4054,-82.96118 -17.2703,-113.5 -0.438,-15.461851 -0.2236,-21.928713 0.9447,-28.5 2.9252,-16.453882 8.4642,-26.145431 17.2227,-30.134338 13.2674,-6.042417 24.6373,1.074743 86.5,54.145626 25.8015,22.134622 38.0375,31.942472 45.5709,36.527612 5.354,3.25865 6.4882,3.571 11.6925,3.22012 12.4906,-0.84214 16.5647,-7.93996 20.2384,-35.25902 4.6455,-34.545122 11.3923,-56.042271 23.13,-73.698259 5.1551,-7.7543732 9.861,-11.46753257 12.1383,-9.5775654 3.5665,2.9599583 7.4456,14.1674004 17.2282,49.7758244 6.6066,24.047895 8.9405,30.612634 12.7051,35.73657 3.5649,4.852196 5.8704,5.698582 15.7966,5.799181 7.4969,0.07598 10.6701,0.665135 19,3.527731 l 10,3.436518 21.5,-0.26814 c 13.22,-0.16487 23.3148,0.15889 26.2122,0.84068 6.2504,1.47074 12.2206,6.84545 19.0917,17.18721 3.0111,4.53214 7.5118,10.20932 10.0014,12.61596 5.9777,5.7785 12.9442,7.76997 49.6947,14.20604 45.5393,7.97522 49.5309,9.20853 58.1021,17.95216 10.0453,10.24735 23.8531,33.04174 28.3846,46.85828 2.2531,6.86984 1.6686,12.94839 -2.9291,30.46109 -3.8409,14.62986 -5.5458,25.46416 -5.5813,35.46908 -0.053,14.95294 -9.7889,29.44425 -62.4935,93.01952 -29.3101,35.3555 -38.929,47.81423 -43.6899,56.58912 -3.2313,5.95552 -3.2992,6.34198 -3.6316,20.66872 -0.3992,17.20547 0.6496,27.32709 8.8486,85.40028 15.7845,111.80111 18.0446,145.21233 13.3937,198 -4.573,51.90345 -14.0829,95.626 -39.9123,183.5 -3.438,11.69617 -3.6419,13.14307 -3.1706,22.5 0.9036,17.93999 11.7478,54.03664 29.8175,99.2526 11.3432,28.3843 11.6458,28.9688 17.9141,34.6045 19.7526,17.7593 95.7858,50.9242 198.9477,86.7789 15.675,5.448 31.7722,11.0703 35.7715,12.494 61.1662,21.7745 141.5863,154.6612 137.9019,227.87 -1.087,21.5968 -6.5683,35.3554 -19.1651,48.106 -12.0991,12.2468 -25.0792,17.7953 -44.5083,19.0257 -17.4067,1.1023 -28.2981,-2.5733 -38.3664,-12.9478 -7.2557,-7.4765 -11.4814,-14.3036 -16.7037,-26.9868 -5.0607,-12.2907 -8.6071,-26.2318 -10.4541,-41.0961 -3.8369,-30.8769 -6.0233,-39.6578 -13.7203,-55.101 -7.865,-15.7802 -15.9555,-25.0548 -26.4759,-30.3508 -18.0467,-9.0846 -69.012,-20.7404 -184.2796,-42.1449 -23.925,-4.4427 -47.775,-8.9846 -53,-10.093 -34.9008,-7.4037 -61.675,-16.6242 -108.4028,-37.3317 -27.2931,-12.0949 -32.1513,-14.0426 -40.0573,-16.0593 -16.949,-4.3234 -24.1915,0.3627 -35.8222,23.1775 -12.2268,23.9842 -27.104,66.9027 -38.7551,111.8022 -3.8098,14.6819 -4.102,16.7002 -3.5464,24.5 1.7683,24.8285 11.9749,66.4938 27.291,111.4071 13.3091,39.0284 20.4384,53.1697 86.7602,172.0929 37.4241,67.1061 49.2756,90.2827 51.077,99.885 0.3933,2.0964 0.012,5.6308 -0.9747,9.0231 -2.6402,9.082 -10.0762,15.1132 -21.5697,17.4948 -4.0712,0.8437 -154.4809,1.1991 -579,1.3684 -315.425,0.1258 -583.625,0.1378 -596,0.027 z m 992.3369,-78.3485 c 2.5852,-2.0335 2.5936,-2.0848 1.0224,-6.25 -0.8713,-2.3098 -12.0673,-25.5746 -24.8799,-51.6996 -25.8841,-52.7777 -33.6994,-69.7758 -43.1711,-93.8962 -11.6547,-29.6796 -16.4783,-50.6609 -26.8071,-116.6038 -14.3264,-91.4646 -17.4515,-107.6893 -21.5908,-112.0954 -4.4899,-4.7793 -18.1404,-5.6082 -27.0987,-1.6455 -6.0096,2.6583 -8.4549,5.6113 -18.4173,22.2409 -4.7776,7.975 -15.5965,25.6023 -24.0418,39.1717 -8.4454,13.5694 -15.6053,25.3233 -15.9109,26.1197 -0.3056,0.7964 1.2712,4.3191 3.5041,7.8283 8.6903,13.6577 13.7317,32.1763 12.7529,46.8451 -0.6624,9.9264 -4.3684,29.6377 -9.3134,49.5352 -11.1954,45.0473 -26.6531,86.3553 -41.9161,112.0136 -6.2817,10.5598 -6.4221,10.9477 -5.3727,14.8449 1.2742,4.7318 5.6254,9.1359 9.8638,9.9836 1.6674,0.3334 8.321,-0.053 14.7857,-0.8599 6.4647,-0.8064 15.6867,-1.4698 20.4933,-1.4742 14.0924,-0.013 17.4547,1.7676 45.2607,23.9675 16.7147,13.3448 30.4549,22.6918 40,27.2106 6.3283,2.9959 7.8156,3.3021 15.5,3.1912 5.3843,-0.078 13.9983,-1.3048 23.5,-3.3477 19.1566,-4.1188 26.5604,-4.2184 36,-0.4843 19.013,7.5211 30.8723,9.3095 35.8369,5.4043 z"
         id="path1423" />
    </g>
  </g>
  <g
     style="display:none"
     inkscape:label="Laag 2"
     id="layer2"
     inkscape:groupmode="layer">
    <text
       id="text846"
       y="5.9058776"
       x="1.3654388"
       style="font-weight:bold;font-size:2.82222px;line-height:1.25;font-family:Roboto;-inkscape-font-specification:'Roboto Bold';letter-spacing:0px;word-spacing:0px;fill:#000000;stroke-width:0.264583"
       xml:space="preserve"><tspan
         style="font-style:normal;font-variant:normal;font-weight:bold;font-stretch:normal;font-size:2.82222px;font-family:'Fira Code';-inkscape-font-specification:'Fira Code Bold';fill:#000000;stroke-width:0.264583"
         y="5.9058776"
         x="1.3654388"
         id="tspan844"
         sodipodi:role="line">(.*)</tspan></text>
  </g>
</svg>
