<svg width="36" height="36" version="1.1" viewBox="0 0 9.525 9.525" xmlns="http://www.w3.org/2000/svg">
 <g>
  <ellipse transform="matrix(.99999 .0047724 -.00482 .99999 0 0)" cx="4.7854" cy="4.7374" rx="4.7719" ry="4.7483" fill="#fff" stroke-width=".91394"/>
 </g>
 <g transform="matrix(.0023119 0 0 .0023119 2.1059 2.4249)">
  <path d="m530 1762.3c-143.31-3.0919-242.39-21.292-308-56.576-43.107-23.182-78.989-49.594-108.55-79.898-65.473-67.128-101.86-150.52-110.54-253.35-1.7376-20.589-1.4833-65.452 0.49611-87.5 8.135-90.612 34.941-179.49 70.482-233.68 24.091-36.735 42.945-50.752 65.926-49.014 14.192 1.0733 28.19 10.52 31.125 21.004 3.6948 13.196-9.6088 56.764-32.427 106.19-10.274 22.257-10.58 22.98-16.612 39.253-23.243 62.706-31.256 134.56-21.9 196.37 10.167 67.172 41.438 129.75 87.895 175.88 61.213 60.79 154.03 91.567 301.47 99.971 31.038 1.7691 89.827 2.4066 103.63 1.1238 31.586-2.9363 64.882-12.729 95.981-28.229 17.979-8.9611 28.88-15.969 37.805-24.303 10.371-9.6851 9.7901-6.6557 9.2148-48.074-1.4184-102.12-0.49103-153.01 3.5991-197.5 12.609-137.16 50.228-254.36 112.17-349.49 75.894-116.54 200.6-222.05 371.88-314.62 23.568-12.738 82.77-42.048 106.85-52.897 27.671-12.469 56.71-24.705 92.948-39.163 19.279-7.6917 36.059-14.632 37.289-15.422 1.2305-0.79046 3.0765-3.1181 4.1024-5.1726 4.4233-8.858 4.5901-11.205 4.6706-65.735 0.061-41.513 0.4293-55.63 1.8245-70 2.5357-26.115 5.2779-46.677 8.8018-66 2.9514-16.183 3.0744-17.889 2.5607-35.5-0.737-25.264-2.3888-34.836-22.088-128-4.1286-19.525-8.6281-41.575-9.9988-49-14.143-76.613-10.428-117.52 11.531-126.97 6.8408-2.9428 11.351-2.2071 21.33 3.4795 13.183 7.5127 26.753 18.209 66.53 52.442 26.206 22.553 40.274 33.546 47.262 36.928 4.2687 2.0665 5.1755 2.1662 10.204 1.1223 10.728-2.2271 13.93-8.664 17.547-35.267 1.1395-8.382 2.7731-18.84 3.6303-23.24 5.6849-29.181 23.674-63.279 31.749-60.18 3.6938 1.4175 7.7331 12.653 18.188 50.59 7.2661 26.366 10.223 33.831 15.091 38.106 3.2071 2.8158 3.7806 2.9527 11.601 2.7681 7.1286-0.16819 9.8971 0.33414 20.728 3.7608 12.36 3.9105 12.64 3.9498 25 3.4987 25.668-0.93687 31.107-0.67543 36.06 1.7335 5.8374 2.8386 8.7025 5.884 16.864 17.926 10.846 16.003 13.598 17.178 58.054 24.794 43.765 7.4977 50.376 9.5886 59.125 18.7 10.122 10.541 25.231 36.226 28.276 48.067 1.6932 6.5854 0.9729 12.577-3.815 31.735-2.5497 10.202-3.918 18.501-4.6164 28-0.9024 12.274-1.3031 14.138-4.4117 20.521-6.3523 13.044-21.013 32.352-63.007 82.979-23.14 27.896-35.002 43.278-38.902 50.443-1.5109 2.7761-3.1212 8.0623-3.8146 12.522-2.0185 12.984-0.5045 27.856 11.609 114.03 9.9773 70.982 13.006 106.56 12.258 144-1.2012 60.168-11.58 116.47-37.608 204-3.7615 12.65-7.1459 24.853-7.521 27.118-1.5723 9.4943 3.2129 31.653 13.579 62.882 8.182 24.648 26.017 69.955 29.278 74.374 12.772 17.312 86.485 50.723 197.59 89.562 15.125 5.287 32.136 11.234 37.802 13.216 17.961 6.2812 31.889 15.842 50.698 34.801 29.648 29.885 58.416 75.072 75.79 119.05 22.662 57.358 21.552 99.613-3.272 124.55-14.564 14.633-35.107 21.445-57.104 18.936-18.266-2.0832-30.28-12.018-40.502-33.49-8.0286-16.864-12.282-33.36-14.827-57.5-1.543-14.638-3.9648-25.815-7.5819-34.992-7.7068-19.552-19.046-34.465-30.663-40.324-17.993-9.0762-66.615-20.118-190.34-43.225-28.325-5.2901-57.364-11.119-64.531-12.953-27.787-7.1116-50.32-15.407-92.456-34.037-30.72-13.582-36.364-15.585-45.742-16.231-8.7779-0.6045-11.864 0.5117-17.09 6.1816-13.03 14.136-34.847 71.073-49.828 130.04-3.3014 12.995-3.5268 14.823-3.0255 24.541 1.1772 22.817 11.445 64.709 27.16 110.81 12.917 37.895 21.665 55.365 79.707 159.19 48.379 86.538 57.806 105.38 57.806 115.55 0 11.974-9.6962 21.624-24.474 24.356-4.2176 0.7797-175.1 1.0287-600.96 0.8757-327.29-0.1175-600.24-0.3254-606.57-0.4618zm1023.8-77.394c4.0024-1.3952 4.5341-3.0776 2.5944-8.2098-0.8772-2.3212-12.525-26.495-25.884-53.72-51.915-105.8-53.933-112.17-71.459-225.5-9.6035-62.1-13.254-81.891-16.725-90.672-1.8391-4.6525-6.8379-6.8276-15.691-6.8276-6.8162 0-13.05 1.7562-17.512 4.9335-1.526 1.0865-6.7576 8.6335-11.626 16.771-4.8683 8.1375-16.378 26.875-25.577 41.639l-16.726 26.844 3.8368 5.9364c11.848 18.33 15.679 38.764 11.602 61.876-9.6868 54.918-30.274 115.61-50.816 149.81-4.3608 7.2595-4.9044 8.7586-4.315 11.9 0.7879 4.1999 5.0859 8.8938 9.056 9.8903 1.5318 0.3844 9.9309-0.1049 18.665-1.0875 27.756-3.1225 30.776-2.094 58.807 20.029 10.175 8.0304 22.784 17.472 28.02 20.982 21.755 14.581 25.754 15.065 61.48 7.4316 13.424-2.8681 20.968-2.2892 33.5 2.5705 9.0594 3.5132 19.071 6.2277 23.601 6.3991 1.1554 0.044 3.4818-0.4019 5.1698-0.9904z"/>
  <path d="m519.35 1761.9c-102.73-2.8448-181.81-13.53-240.46-32.488-45.89-14.835-94.77-42.352-136.56-76.874-13.892-11.477-38.393-35.976-49.884-49.88-52.444-63.457-81.544-138.49-89.464-230.67-1.3705-15.952-1.3854-62.556-0.025682-80.052 6.1242-78.803 26.945-158.71 55.856-214.38 13.062-25.149 25.244-42.686 39.656-57.094 9.9078-9.9045 17.196-14.41 27.637-17.087 18.769-4.8117 40.765 5.301 44.896 20.641 3.4796 12.922-10.442 57.578-33.472 107.37-26.729 57.788-39.724 111.38-41.244 170.1-1.8769 72.5 15.543 135.53 53.202 192.5 43.93 66.453 102.69 104.97 194.51 127.49 56.891 13.955 124.56 20.745 208.5 20.92 47.87 0.1 52.99-0.3466 78.5-6.8457 41.697-10.623 81.679-30.583 99.658-49.752 4.6145-4.9198 5.2381-6.1226 5.9138-11.406 0.4154-3.2486 0.22143-25.482-0.43106-49.407-2.3132-84.819-1.174-133.76 4.4228-190 13.414-134.8 51.75-250.5 114.3-345 39.078-59.032 92.276-116.57 157.63-170.5 73.638-60.761 164.47-117.91 267.79-168.48 49.76-24.355 87.26-40.848 147.93-65.061 16.346-6.5236 30.603-12.333 31.68-12.91 3.0617-1.6386 5.9047-6.2752 7.7753-12.68 1.5143-5.1854 1.7268-11.841 1.8156-56.873 0.062-31.597 0.5733-56.326 1.3431-65 2.1839-24.606 6.0034-54.593 8.7249-68.5 1.9687-10.06 2.7713-17.848 3.1501-30.562 0.7871-26.417-0.7209-36.17-19.152-123.87-18.057-85.921-20.755-103.38-20.87-135.07-0.055-15.199 0.3246-21.759 1.5818-27.328 3.8907-17.236 11.255-26.491 22.802-28.658 10.256-1.9241 27.501 9.9738 80.6 55.611 28.085 24.138 43.437 36.114 50.1 39.085 4.9765 2.2185 11.149 1.7316 16.082-1.2685 5.9594-3.6241 8.3345-11.521 12.632-42.001 3.5294-25.032 9.8437-44.836 19.39-60.814 4.7635-7.9734 11.148-14.455 13.761-13.971 4.1431 0.7674 8.1484 12.044 21.788 61.345 4.4107 15.942 9.539 26.914 13.549 28.988 1.9043 0.98475 5.4868 1.4332 10.694 1.3387 6.6278-0.12031 9.5957 0.44341 19.33 3.6716 12.572 4.1693 13.829 4.2696 43.5 3.4733 19.448-0.52192 22.877 1.2299 33.588 17.16 3.2626 4.8522 7.2826 10.36 8.9335 12.241 5.7252 6.5206 13.48 8.7864 53.478 15.626 26.627 4.5531 41.659 8.0221 47.357 10.929 8.7709 4.4746 23.054 23.307 32.354 42.659 7.2369 15.059 7.4504 19.873 1.8538 41.803-2.9839 11.692-4.3536 19.616-5.1854 30-0.7415 9.2569-1.7608 15.584-2.963 18.394-4.4546 10.409-20.914 32.935-48.386 66.218-8.8523 10.725-21.297 25.8-27.655 33.5-16.904 20.473-24.761 31.175-28.266 38.5-3.074 6.4243-3.1098 6.6806-3.0726 22 0.043 17.864 0.367 20.811 9.0615 82.5 7.2533 51.464 11.482 87.061 13.958 117.5 1.9693 24.209 1.4995 63.781-1.0328 87-5.2345 47.995-16.092 98.115-34.661 160-7.7812 25.932-8.2475 28.013-8.1777 36.5 0.1032 12.541 3.7934 28.043 13.807 58 8.6573 25.9 23.83 64.95 28.008 72.087 4.1265 7.048 16.341 15.339 40.268 27.332 34.086 17.085 89.157 39.331 152.23 61.495 13.475 4.7349 31.025 10.9 39 13.699 22.972 8.0644 35.004 15.875 54.502 35.381 40.142 40.157 76.42 104.91 89.093 159.01 3.5275 15.06 4.4426 39.271 1.9496 51.579-5.3702 26.513-22.266 44.456-47.955 50.928-9.8679 2.4861-27.741 2.7311-35.308 0.484-24.404-7.2473-41.486-40.396-46.776-90.776-1.9194-18.278-4.9354-28.936-12.555-44.37-7.1871-14.558-15.837-24.751-24.852-29.284-18.87-9.489-60.675-19.177-177.06-41.033-35.453-6.6576-69.878-13.463-76.5-15.123-28.28-7.089-50.597-15.224-93.04-33.915-15.95-7.024-32.15-13.748-36-14.943-8.6149-2.6733-17.828-2.983-22.136-0.744-12.462 6.4768-29.273 43.253-47.289 103.45-8.8511 29.576-12.075 43.515-12.075 52.206 0 16.341 8.0319 53.502 19.942 92.267 16.316 53.104 22.915 66.696 95.94 197.61 39.585 70.967 49.138 90.39 49.095 99.822-0.044 9.7024-6.5521 18.01-17.597 22.463l-5.8808 2.3708-595.5 0.094c-327.52 0.052-608.17-0.2567-623.65-0.6855zm1035.2-77.358c1.9074-0.7969 3.4679-1.9474 3.4679-2.5566 0-2.6073-8.042-19.966-26.176-56.504-29.079-58.588-39.546-82.044-49.218-110.29-7.8574-22.946-12.333-45.832-25.629-131.06-7.2766-46.643-10.728-65.506-13.723-75.009-1.5436-4.8972-2.1692-5.6516-6.1447-7.4101-3.5859-1.5862-5.9974-1.8754-12.705-1.5233-12.915 0.6779-15.766 2.8834-26.284 20.33-4.6321 7.6835-16.21 26.479-25.728 41.767l-17.306 27.797 3.6521 5.7029c2.0087 3.1366 5.0663 9.0779 6.7947 13.203 9.5075 22.691 8.8869 38.308-3.4802 87.576-11.274 44.912-28.61 90.197-42.956 112.21-4.4437 6.818-4.8053 8.6036-2.7335 13.498 3.282 7.7543 7.3535 8.652 28.129 6.202 25.044-2.9533 30.284-1.406 51.009 15.062 24.216 19.242 37.215 28.55 46.355 33.195 12.914 6.5626 18.166 6.777 42.645 1.7411 21.369-4.396 26.773-4.3216 38.943 0.536 8.9658 3.5786 20.677 6.8446 24.839 6.9269 1.5302 0.03 4.3427-0.5969 6.25-1.3939z"/>
  <path d="m538 1762.3c-114.66-2.2693-200.05-13.326-261.6-33.875-74.895-25.004-147.85-77.348-195.08-139.97-42.04-55.735-67.52-122.37-76.851-200.98-2.2275-18.766-3.095-72.206-1.5227-93.8 8.3372-114.5 47.004-224.78 95.987-273.78 9.6509-9.6524 19.152-15.126 29.574-17.038 15.674-2.8747 33.255 4.0137 40.113 15.716 2.537 4.3291 2.6404 5.0316 2.0942 14.225-1.1598 19.52-13.022 54.642-33.494 99.171-20.871 45.397-31.956 83.164-38.295 130.48-2.6022 19.423-3.606 57.87-2.0109 77.018 6.634 79.632 37.834 148.75 90.971 201.53 51.37 51.024 123.49 80.338 231.12 93.941 41.782 5.2807 78.301 7.331 132.5 7.439 49.229 0.098 53.037-0.2143 78.327-6.4242 38.265-9.3957 80.203-29.543 98.022-47.091 9.3985-9.2556 8.7169-5.044 8.1509-50.364-1.323-105.92-0.44003-148.83 4.0552-197.03 14.132-151.54 59.16-278.39 134.89-380 47.072-63.16 111.82-125.55 187.56-180.71 104.05-75.787 219.58-136.89 375.8-198.76 11.438-4.5295 22.124-9.3532 23.748-10.719 2.0565-1.7304 3.6353-4.6569 5.2044-9.6471 2.2001-6.9968 2.246-8.0803 1.9767-46.663-0.4301-61.632 2.6118-102.93 10.938-148.5 5.9038-32.312 4.2658-51.843-10.085-120.26-2.7391-13.058-7.9546-37.917-11.59-55.242-12.099-57.661-15.816-83.875-15.81-111.5 0-20.827 1.5582-30.345 6.6024-40.456 3.6201-7.256 9.3122-12.319 15.821-14.071 11.201-3.016 26.288 6.9927 80.109 53.143 44.224 37.921 52.592 43.741 61.068 42.47 12.269-1.8398 15.253-8.0544 19.73-41.086 3.7042-27.331 10.561-49.116 20.458-64.995 4.9665-7.9685 10.801-13.793 13.328-13.306 3.7654 0.72515 8.0312 12.15 17.66 47.301 11.605 42.362 12.97 44.5 28.415 44.5 6.2955 0 10.284 0.72611 19.001 3.459 14.735 4.6199 18.656 5.0136 35.434 3.558 24.14-2.0943 30.383 0.5103 41.903 17.483 3.7332 5.5 8.5691 11.619 10.747 13.597 5.9612 5.416 16.205 8.1495 54.047 14.423 21.05 3.4895 37.318 7.2027 43.422 9.9112 9.6234 4.2701 22.717 20.936 33.302 42.388 7.7479 15.702 7.9723 19.75 2.3379 42.181-2.9323 11.674-4.522 20.741-5.4347 31-0.785 8.8223-1.9632 16.063-3.0091 18.493-4.5724 10.62-21.156 32.885-54.069 72.592-39.127 47.204-48.064 58.905-51.311 67.187-1.3106 3.3423-1.6528 7.6855-1.6333 20.728 0.027 17.934 0.8818 25.909 8.416 78.5 13.057 91.143 16.694 130.41 15.649 169-1.6016 59.163-12.387 116.86-37.477 200.5-6.9716 23.239-7.6472 26.254-7.6211 34 0.034 9.9545 2.7158 23.069 9.0834 44.412 8.1476 27.31 29.884 83.131 34.741 89.218 4.0386 5.0614 21.653 16.192 39.82 25.162 39.66 19.582 95.872 41.739 179.67 70.819 32.861 11.403 43.838 18.019 64.675 38.978 42.831 43.082 81.551 114.84 90.606 167.91 2.7517 16.128 2.2348 38.422-1.1361 49-6.93 21.746-20.983 36.406-41.403 43.19-7.3878 2.4543-9.5465 2.706-23.63 2.7558-14.703 0.052-15.783-0.08-21-2.5597-22.665-10.774-37.577-42.169-42.456-89.386-2.9238-28.295-12.135-50.287-27.459-65.558-6.91-6.886-8.4294-7.8775-17.084-11.148-24.591-9.2934-60.558-17.278-172.77-38.357-33.95-6.3772-68.478-13.325-76.728-15.44-27.497-7.0476-50.553-15.53-90.519-33.303-26.692-11.87-35.175-15.097-43.787-16.659-13.875-2.516-20.534 2.7094-31.624 24.816-9.6508 19.238-20.542 49.095-31.059 85.149-10.234 35.084-10.799 37.943-10.176 51.5 0.9706 21.102 11.012 63.047 25.237 105.42 14.037 41.814 21.142 56.011 88.616 177.08 30.242 54.262 40.88 74.335 46.854 88.412 3.796 8.9444 4.1545 10.489 3.6714 15.817-0.8962 9.8831-7.8016 17.656-19.127 21.531-4.8103 1.6457-37.299 1.7421-598.59 1.7764-326.42 0.02-599.12-0.075-606-0.2111zm1017-77.851c1.6226-0.8391 2.9503-1.9999 2.9503-2.5794 0-2.4464-6.0286-15.872-17.016-37.895-33.922-67.993-49.531-102.53-58.49-129.42-7.6793-23.045-11.953-44.44-22.989-115.08-11.2-71.696-14.675-90.058-18.006-95.142-4.5204-6.8991-27.887-5.3575-34.639 2.2854-0.902 1.021-6.2649 9.5064-11.918 18.856-5.6526 9.35-16.931 27.676-25.063 40.725l-14.786 23.725 4.0208 6.6184c4.8885 8.0467 9.3101 18.86 11.477 28.069 2.3779 10.105 1.4408 26.961-2.5497 45.863-11.566 54.786-29.373 105.7-47.351 135.4-3.1299 5.1701-5.6908 10.247-5.6908 11.282 0 3.2712 2.6565 8.4023 5.5137 10.65 3.4035 2.6772 7.0905 2.7494 26.244 0.5141 16.781-1.9584 24.698-1.0783 32.805 3.6464 2.7159 1.583 13.263 9.4612 23.438 17.507 20.024 15.834 30.839 23.388 41 28.641 6.3146 3.2639 6.828 3.3573 18 3.2739 8.8287-0.066 14.171-0.7204 23-2.8177 6.325-1.5026 14.875-2.9664 19-3.2531 6.8519-0.4761 8.3642-0.2031 17.5 3.1589 19.496 7.1746 28.221 8.7276 33.55 5.972z"/>
  <path d="m541 1762.3c-144.21-2.6176-238.7-18.361-307.57-51.244-52.336-24.99-105.08-65.472-139.94-107.4-53.5-64.356-83.145-141.05-90.48-234.07-1.3099-16.612-1.3004-58.126 0.017488-76.105 6.1618-84.062 29.807-170.94 61.783-227 11.484-20.134 27.994-41.946 38.484-50.842 9.756-8.2736 22.439-13.598 32.5-13.643 11.997-0.054 26.81 7.1516 32.211 15.668 2.5913 4.0861 2.9849 5.6414 2.977 11.763-0.0237 18.474-12.834 57.042-34.728 104.55-4.9422 10.725-11.247 25.575-14.01 33-13.065 35.104-22.11 76.09-25.334 114.81-1.4916 17.91-0.64467 59.298 1.5388 75.194 8.0223 58.403 28.124 107.71 62.679 153.73 60.879 81.086 156.99 119.86 322.86 130.27 28.558 1.7908 98.706 2.4829 112 1.1049 21.282-2.2059 44.51-7.917 67.5-16.596 35.937-13.567 69.217-35.44 72.569-47.695 0.88307-3.2282 0.95961-14.102 0.30484-43.31-1.8741-83.601-0.88876-141.4 3.1965-187.5 12.457-140.57 50.965-259.35 115.9-357.5 56.588-85.528 140.64-165.62 251.02-239.2 92.88-61.909 190.96-111.92 323.24-164.81 16.081-6.43 30.378-12.587 31.77-13.682 3.586-2.8207 5.1139-6.2548 7.0683-15.886 1.5105-7.4437 1.6294-12.576 1.017-43.928-1.0653-54.543 2.229-99.252 10.831-147 6.1729-34.263 4.6291-48.244-16.286-147.5-16.154-76.659-19.05-93.599-21.152-123.71-1.8809-26.947 1.2956-48.067 8.8893-59.105 4.1603-6.0468 10.964-10.065 17.04-10.065 10.548 0.0011 28.686 12.569 72.088 49.948 27.918 24.044 35.738 30.549 44.506 37.023 10.699 7.8987 15.162 9.84 20.709 9.0081 10.673-1.6005 14.606-7.7801 17.786-27.946 1.0971-6.9568 2.8886-18.318 3.9811-25.247 2.4197-15.347 8.153-32.95 15.199-46.668 5.2591-10.238 12.982-19.734 16.049-19.734 3.859 0 7.9984 10.909 18.361 48.389 7.7313 27.962 11.643 38.08 16.065 41.559 2.1859 1.7194 4.0479 2.0519 11.492 2.0519 7.57 0 10.545 0.54959 20.115 3.7165 12.219 4.0434 14.245 4.1941 43.732 3.254 18.152-0.57874 22.492 1.6864 32.953 17.202 7.0902 10.516 11.321 15.356 15.204 17.39 4.9687 2.6036 17.294 5.3832 46.336 10.45 44.564 7.7748 48.539 9.0586 57.414 18.546 14.869 15.895 29.094 42.682 29.094 54.788 0 2.9156-1.7846 12.487-3.9657 21.27-3.9491 15.902-6.0105 29.249-6.0261 39.018-0.01 3.9935-0.9103 6.9365-4.0684 13.246-7.0775 14.14-17.321 27.674-59.384 78.453-26.755 32.299-39.584 49.048-43.198 56.394-2.0834 4.2358-2.6712 7.1824-3.097 15.525-0.7413 14.525 0.8573 30.33 8.7239 86.247 12.948 92.038 15.453 117.87 15.417 159-0.035 39.54-2.8575 65.885-11.915 111.22-6.7952 34.014-12.637 56.51-29.677 114.28-3.6082 12.232-3.9332 14.253-3.4608 21.523 1.0523 16.196 8.8875 44.167 22.683 80.977 10.77 28.736 18.194 46.158 21.364 50.13 1.4636 1.8342 7.4857 6.5217 13.382 10.417 30.451 20.114 106.93 51.763 211.65 87.591 8.7621 2.9977 19.337 7.226 23.5 9.3963 48.862 25.474 107.84 114.14 124.7 187.47 2.4475 10.644 2.7653 14.033 2.8134 30 0.062 20.693-0.923 25.832-7.5404 39.333-7.0671 14.418-19.436 24.883-36.415 30.809-7.3584 2.5681-9.1769 2.79-22.99 2.8055-18.626 0.021-23.241-1.4668-33.068-10.66-11.192-10.469-19.671-26.867-25.337-48.999-2.6978-10.538-3.3705-14.739-6.1302-38.288-3.5317-30.138-20.138-59.765-38.365-68.446-18.953-9.0276-62.027-18.901-174.6-40.022-72.356-13.576-82.162-15.773-107-23.982-21.054-6.9577-34.864-12.462-66.26-26.409-29.213-12.977-38.038-16.009-46.812-16.084-5.405-0.046-7.2365 0.3877-10.312 2.4436-11.323 7.5707-28.155 44.754-44.042 97.292-14.374 47.534-15.435 54.773-11.54 78.708 4.9667 30.519 21.749 88.733 34.524 119.76 8.3089 20.178 26.251 54.251 66.737 126.74 40.99 73.393 56.369 102.5 60.115 113.78 5.3133 16.003-4.8251 29.572-24.411 32.671-4.4113 0.6981-195.29 0.9609-594 0.8179-323.12-0.116-593.58-0.3211-601-0.4559zm1013.5-77.303c1.4249-0.5417 2.8544-1.672 3.1766-2.5116 0.9483-2.4714-2.6005-10.32-28.715-63.503-30.811-62.748-43.896-93.145-50.797-118-3.3757-12.158-9.6162-45.176-15.12-80-12.158-76.922-14.149-88.898-16.609-99.897-3.4948-15.625-4.509-17.834-9.0615-19.736-8.5541-3.5742-24.662-0.9235-30.167 4.9639-1.1155 1.1931-5.9506 8.6942-10.745 16.669-4.7941 7.975-16.095 26.356-25.113 40.847l-16.396 26.347 2.979 4.6533c13.017 20.334 16.633 39.766 12.092 64.983-9.7567 54.184-30.096 114.1-49.93 147.08-2.7815 4.6253-5.0555 9.5753-5.0535 11 0 3.3054 3.1555 8.4934 6.4818 10.673 2.8211 1.8484 10.833 1.6877 29.014-0.582 14.17-1.769 23.155-0.057 32.261 6.1472 2.6064 1.7757 11.939 8.9211 20.739 15.878 19.545 15.452 29.824 22.648 39 27.303 12.839 6.512 16.811 6.5617 45.902 0.5744 17.864-3.6766 22.566-3.526 34.098 1.0918 15.136 6.061 26.315 8.1665 31.96 6.02z"/>
  <path d="m549 1762.3c-154.54-2.0666-256.52-19.698-325.69-56.314-81.462-43.119-140.05-100.84-176.98-174.37-22.604-45.003-35.236-89.235-42.011-147.11-2.5253-21.571-2.5276-83.157-0.0039981-106.5 12.133-112.23 47.589-209.7 93.374-256.7 12.907-13.249 23.95-18.614 38.317-18.614 13.569 0 25.292 5.3507 31.554 14.403 2.7778 4.0153 2.9422 4.8069 2.8743 13.837-0.14023 18.658-11.251 52.708-31.677 97.078-24.167 52.496-36.326 95.785-41.263 146.91-1.731 17.924-1.9443 52.548-0.42563 69.089 7.1346 77.712 40.108 148.34 93.203 199.62 49.141 47.469 117.03 75.698 216.01 89.817 46.053 6.5695 83.241 8.8854 144.23 8.9817 46.962 0.074 49.499-0.017 61-2.197 26.949-5.1076 51.298-13.19 76-25.229 26.106-12.722 45.468-27.311 48.52-36.557 0.98789-2.9933 1.1308-11.149 0.62918-35.907-2.1752-107.36-1.9189-131.61 1.9241-182.03 11.155-146.37 50.144-270.26 116.63-370.62 74.515-112.47 196.24-215.5 360.79-305.39 62.88-34.349 126.96-64.072 208.3-96.608 19.135-7.6548 35.691-14.473 36.79-15.151s3.0871-3.4828 4.417-6.2328c4.3191-8.9316 4.8621-15.97 4.1274-53.5-1.0815-55.247 2.5955-104.29 11.097-148 2.1637-11.125 2.6251-16.315 2.6225-29.5 0-22.344-2.9048-41.39-14.848-97.5-11.74-55.156-19.383-94.106-21.878-111.5-8.7452-60.972-2.898-94.885 17.399-100.91 5.9994-1.7816 9.7335-1.0022 18.69 3.9014 12.41 6.7937 28.072 19.147 70.346 55.484 39.511 33.961 46.594 38.299 57.046 34.932 8.6317-2.7802 12.061-11.169 15.906-38.905 3.8458-27.746 8.0538-42.501 17.198-60.303 4.9065-9.5519 12.927-19.697 15.573-19.697 4.2007 0 8.1836 10.149 18.134 46.208 7.9471 28.8 9.189 32.58 12.636 38.463 3.7781 6.4469 5.6251 7.3264 15.425 7.3454 6.9922 0.01355 10.508 0.65316 19.528 3.5526 12.994 4.1771 21.674 5.0305 37 3.6378 22.625-2.0559 28.779 0.49442 39.997 16.575 14.022 20.101 14.428 20.287 61.503 28.218 38.166 6.43 47.53 9.0741 54.804 15.476 9.041 7.9561 22.339 28.185 28.733 43.708 4.5311 11 4.4754 15.492-0.4328 34.908-3.9955 15.806-6.0966 29.201-6.103 38.908-0.01 11.749-12.39 30.58-49.974 76-49.328 59.613-56.976 69.866-58.94 79.024-2.7549 12.846-1.1004 32.549 8.395 99.976 16.269 115.53 18.415 153.16 11.943 209.5-5.1589 44.91-15.037 90.079-32.63 149.2-8.889 29.873-9.1644 31.099-9.1638 40.798 4e-4 7.3364 0.7337 13.196 2.753 22 6.5677 28.634 35.097 105.25 41.78 112.2 17.981 18.702 100.5 54.562 219.46 95.369 31.816 10.914 40.354 15.984 61.236 36.364 31.954 31.186 60.807 75.92 79.561 123.35 18.361 46.437 20.506 84.978 6.1589 110.63-11.038 19.737-33.292 31.584-59.332 31.584-15.706 0-24.792-3.6319-34.432-13.763-14.566-15.308-25.001-44.304-27.881-77.472-2.335-26.89-12.9-52.682-27.602-67.384-6.4467-6.4467-11.269-8.9885-26.168-13.792-26.01-8.3857-63.653-16.513-162.17-35.011-33.825-6.3514-67.8-13.104-75.5-15.005-28.516-7.0423-50.618-15.102-93.788-34.202-32.438-14.352-39.107-16.67-48.284-16.783-6.0822-0.075-7.6394 0.2885-11.13 2.5975-11.299 7.4745-27.976 44.6-44.164 98.315-10.411 34.546-13.135 46.35-13.135 56.928 0 29.318 22.261 109.77 42.608 153.99 8.4433 18.348 26.435 51.93 60.855 113.58 41.564 74.451 53.816 97.604 59.271 112 5.5027 14.524-1.2421 27.418-16.734 31.99-6.3704 1.8803-18.182 1.9244-592.5 2.2143-322.3 0.1626-592.98 0.2024-601.5 0.088zm1005.5-77.278c1.4249-0.5417 2.869-1.7102 3.2091-2.5965 0.9568-2.4933-2.1119-9.2867-28.195-62.418-26.581-54.145-33.37-69.015-42.361-92.782-11.298-29.864-14.515-45.234-29.559-141.22-11.771-75.1-13.36-81.739-20.268-84.688-4.687-2.0002-14.262-2.2071-20.43-0.4414-7.0776 2.0262-10.758 5.7994-18.802 19.275-4.0555 6.7946-15.436 25.311-25.291 41.147l-17.917 28.793 3.041 4.739c5.049 7.8682 10.004 19.564 12.232 28.874 2.7809 11.619 2.1756 25.334-2.0115 45.58-11.381 55.029-30.154 108.25-49.102 139.21-4.3203 7.0584-4.8349 10.007-2.5262 14.472 3.8734 7.4903 7.6473 8.167 30.616 5.4902 14.845-1.7301 22.941-1.069 30.224 2.4678 2.2991 1.1167 11.508 7.7791 20.464 14.805 42.803 33.58 51.899 38.365 68.909 36.251 4.5446-0.5647 13.335-2.2062 19.535-3.6478 6.6814-1.5536 14.53-2.6632 19.272-2.7245 7.008-0.091 9.2359 0.3704 17.967 3.7188 16.04 6.1516 25.309 7.854 30.994 5.6926z"/>
  <path d="m536.5 1761.9c-152.36-2.785-248.53-20.588-319-59.055-119.14-65.031-190.05-164.67-209.86-294.91-4.434-29.143-5.1339-39.574-5.1259-76.395 0.0090753-41.7 1.8703-63.108 9.0851-104.5 15.55-89.213 48.175-166.81 86.68-206.18 12.565-12.845 23.255-17.954 37.724-18.028 9.4806-0.049 16.317 1.9911 24.225 7.2292 10.912 7.2281 12.896 15.863 8.3196 36.215-4.8962 21.773-15.389 50.438-30.295 82.76-18.49 40.095-28.673 71.266-35.684 109.24-4.6267 25.059-5.769 37.124-6.2731 66.26-0.49821 28.796 0.58101 45.876 4.2438 67.162 14.275 82.959 61.716 158.46 126.96 202.06 47.257 31.58 112.58 52.188 197 62.151 40.495 4.7792 63.662 6.1087 118 6.772 52.037 0.6351 60.121 0.095 83.981-5.6067 41.37-9.8868 83.676-30.131 102.68-49.135 5.8308-5.8308 6.7751-7.2969 7.4048-11.496 0.39695-2.6471 0.31963-23.51-0.17183-46.363-2.3739-110.38 0.0903-170.9 9.672-237.55 20.576-143.12 69.338-259.59 149.47-357.01 29.74-36.159 71.081-77.333 111.68-111.23 74.407-62.12 162.04-117.82 267.67-170.13 51.873-25.689 85.121-40.419 150.49-66.668 32.841-13.188 37.077-15.142 38.771-17.884 5.5909-9.0488 7.2021-25.73 5.6969-58.98-1.93-42.634 2.3307-100.09 10.753-145.01 6.3116-33.662 4.7014-48.333-16.192-147.52-19.063-90.5-22.004-110.49-21.114-143.5 0.3644-13.512 1.0048-20.803 2.1971-25.016 5.8845-20.79 18.338-29.042 33.309-22.072 11.758 5.4742 27.078 17.169 64.21 49.017 40.988 35.156 51.776 43.258 58.86 44.209 5.204 0.698 11.276-1.1965 14.449-4.5085 4.1877-4.3711 6.3628-12.175 9.6125-34.487 3.3744-23.168 5.7026-33.209 10.716-46.212 6.1517-15.957 15.171-30.721 20.514-33.581 1.5734-0.84207 2.4254-0.70737 3.8859 0.61433 2.7866 2.5219 7.2626 14.115 11.956 30.967 2.2977 8.25 5.9465 21.3 8.1085 29 4.4094 15.704 9.0671 25.959 13.119 28.883 2.2246 1.6054 4.1558 1.9276 10.602 1.769 6.6495-0.16361 9.663 0.37607 19.28 3.4529 12.961 4.1466 21.696 5.0155 37.398 3.7201 11.687-0.96407 21.984-0.16009 26.258 2.0501 4.4941 2.324 8.7238 6.9315 15.187 16.544 8.1213 12.078 12.146 15.43 22.254 18.533 4.5651 1.4016 21.318 4.8091 37.228 7.5722 45.016 7.8177 50.101 9.4597 58.971 19.04 9.735 10.515 22.674 32.177 27.01 45.221 2.3638 7.1099 1.9927 11.733-2.3592 29.389-4.1869 16.987-6.0495 28.931-6.0508 38.8 0 13.335-10.416 28.633-61.757 90.719-31.092 37.599-41.699 51.412-45.131 58.774-2.2549 4.837-2.6254 7.1323-2.9448 18.245-0.454 15.796 1.0744 30.233 9.3998 88.788 11.444 80.489 14.955 116.96 14.825 154-0.2163 61.645-10.883 121.22-37.959 212l-7.6055 25.5 0.5295 9.5c0.8938 16.039 9.1995 45.364 23.65 83.5 11.757 31.028 17.753 44.654 21.248 48.292 18.047 18.776 98.15 53.607 219.1 95.27 12.572 4.3307 25.847 9.5022 29.5 11.492 23.049 12.557 52.589 43.329 75.374 78.516 37.873 58.49 57.098 118.36 50.361 156.83-4.728 27.004-19.653 44.095-45.629 52.252-6.3481 1.9933-9.5671 2.344-21.518 2.344h-14.053l-7.6266-3.7698c-5.7161-2.8254-9.1322-5.4128-13.636-10.328-13.79-15.049-24.273-44.615-27.108-76.454-1.6703-18.76-6.0507-33.898-14.164-48.948-5.0044-9.2835-13.24-19.606-18.614-23.33-15.294-10.598-54.322-19.967-186.25-44.708-32.175-6.0342-65.025-12.59-73-14.568-27.766-6.8872-51.216-15.458-93.758-34.267-38.254-16.913-47.354-19.383-56.509-15.333-7.9446 3.5143-16.946 17.987-27.601 44.381-11.262 27.896-28 82.034-32.185 104.1-3.2307 17.036 11.002 78.769 30.666 133.01 10.657 29.396 22.857 53.356 71.513 140.44 41.911 75.011 55.288 100.23 60.608 114.28 2.8258 7.4588 2.6509 13.378-0.5816 19.682-2.6445 5.1575-5.5463 7.6822-12.655 11.011-5.7198 2.678-6.7599 2.819-22.497 3.0507-39.629 0.5833-1156 0.6936-1187.5 0.1173zm1019.6-77.764 2.3507-1.9034-1.9818-5.8466c-1.0899-3.2156-10.69-23.396-21.334-44.846-52.943-106.69-58.075-121.74-72.146-211.5-13.966-89.094-16.764-104.67-20.341-113.23-2.0949-5.0137-6.4245-7.0546-15.172-7.1516-8.7291-0.097-16.11 2.3306-20.235 6.6546-1.6935 1.7752-5.4465 7.2776-8.3399 12.228s-13.981 23.023-24.639 40.162l-19.378 31.162 5.0726 8.838c10.516 18.322 13.9 36.497 10.584 56.838-8.7567 53.705-32.174 122.75-52.112 153.65-4.0899 6.339-4.2441 6.8487-3.2528 10.754 0.6652 2.6205 2.3292 5.2311 4.6118 7.2352l3.5711 3.1355 10.556-0.6694c5.8059-0.3682 14.143-1.0136 18.527-1.4343 10.38-0.9961 19.222 0.1283 25.324 3.2202 2.699 1.3677 9.812 6.3543 15.807 11.081 35.134 27.705 46.144 35.088 57.725 38.712 7.458 2.3331 11.077 2.0488 35.333-2.7756 9.4375-1.8771 18.572-3.4129 20.299-3.4129s9.7553 2.214 17.841 4.9201c17.528 5.8661 17.332 5.817 23.84 5.9639 3.6911 0.083 5.8016-0.4203 7.4899-1.7875z"/>
  <path d="m541 1761.9c-143.58-2.4015-236.72-17.718-306.5-50.405-4.4-2.0611-14.075-7.1227-21.5-11.248-61.444-34.138-110.17-78.304-145.29-131.7-58.014-88.192-78.228-202.68-58.086-329 15.272-95.782 47.389-175.33 87.67-217.16 8.5754-8.9033 11.243-11.007 18.538-14.622l8.5214-4.2225h11.575c10.644 0 12.077 0.2317 17.81 2.8795 6.5183 3.0107 14.48 10.424 16.28 15.158 4.7377 12.461-8.4771 56.978-32.051 107.97-14.66 31.712-23.231 55.586-30.409 84.7-12.871 52.209-15.382 109.07-6.9901 158.29 7.229 42.398 23.676 83.784 47.886 120.5 29.005 43.987 61.178 73.302 105.98 96.571 70.36 36.539 176.91 54.79 310.57 53.195 38.706-0.4616 44.181-1.02 66.5-6.7823 39.025-10.075 79.547-29.983 97.66-47.98 5.8562-5.8184 6.7483-7.2078 7.3945-11.517 0.40415-2.6951 0.3323-24.72-0.15967-48.944-1.5824-77.918-0.77836-129.71 2.6633-171.54 12.139-147.56 51.376-269.55 119.02-370.04 25.311-37.603 50.267-67.368 88.887-106.01 43.364-43.392 83.815-77.019 138.54-115.16 94.964-66.198 204.76-123.38 341.5-177.86 18.425-7.3407 34.449-14.291 35.608-15.446 6.7673-6.7377 9.0308-25.516 7.35-60.976-2.0678-43.622 2.1741-100.21 10.832-144.5 2.2428-11.473 2.637-16.128 2.6256-31-0.019-24.734-1.6547-34.838-18.94-117-18.273-86.854-21.443-107.33-21.465-138.62-0.021-30.039 5.4856-45.915 18.2-52.469 12.768-6.5811 24.967 0.9756 85.966 53.251 28.657 24.559 42.776 35.647 49.64 38.982 5.249 2.5506 12.938 2.1676 17.009-0.84716 6.7273-4.9825 8.4576-10.45 12.672-40.044 1.4292-10.036 3.9175-22.944 5.5294-28.684 5.8836-20.953 16.962-42.24 24.584-47.233 2.5907-1.6975 2.6994-1.678 4.9009 0.8814 3.8785 4.509 7.573 15.768 19.591 59.704 3.9138 14.308 9.1541 25.619 13.225 28.546 2.3648 1.7003 4.0925 1.9866 10.568 1.751 6.7199-0.24448 9.2483 0.21707 19.173 3.5l11.432 3.7816 22-0.29114c14.625-0.19355 23.428 0.10237 26.26 0.88277 5.7083 1.573 12.292 7.5722 18.438 16.802 6.2895 9.4447 11.194 14.704 16.046 17.209 5.2147 2.6916 16.114 5.1292 46.256 10.345 42.535 7.3608 48.649 9.4113 57.427 19.259 9.9944 11.213 22.264 32.087 26.56 45.185 2.2142 6.751 1.6404 13.302-2.536 28.951-3.5454 13.285-5.9365 28.115-5.9448 36.87-0.014 15.075-9.9581 29.887-62.96 93.788-26.632 32.108-39.884 49.312-43.735 56.779-2.4318 4.7145-2.734 6.5037-3.1173 18.457-0.5382 16.78 0.3786 25.676 8.8906 86.264 11.899 84.693 15.4 120.52 15.296 156.5-0.1029 35.775-3.626 68.512-11.875 110.34-6.115 31.009-12.868 56.938-30.613 117.54-3.4955 11.938-3.6574 18.557-0.8138 33.292 5.6866 29.468 34.856 109.4 43.092 118.08 17.205 18.139 97.468 53.294 212.83 93.218 16.225 5.6151 32.2 11.709 35.5 13.541 32.864 18.249 70.259 62.807 97.02 115.6 40.042 78.999 40.522 138.57 1.3218 163.91-18.025 11.65-46.011 14.498-62.142 6.3243-20.312-10.293-35.728-44.045-39.669-86.848-1.2614-13.702-2.7544-20.842-6.5868-31.5-5.6747-15.782-14.734-30.657-23.194-38.086-13.72-12.046-52.134-21.461-201.73-49.44-50.691-9.4809-57.472-10.932-75.018-16.052-23.592-6.8842-42.977-14.301-77-29.459-39.999-17.821-50.296-20.554-59.492-15.79-7.5002 3.885-15.078 15.858-25.446 40.204-10.688 25.099-31.363 91.684-34.046 109.65-2.2373 14.982 9.04 65.934 25.458 115.02 14.187 42.418 21.3 56.813 80.016 161.95 41.843 74.925 55.355 100.69 58.618 111.79 3.887 13.216-3.9559 25.411-19.108 29.713-4.2872 1.2172-87.476 1.4609-583.5 1.7097-318.18 0.1596-595.82 4e-4 -617-0.3537zm1015.1-77.725c2.1783-1.7639 2.237-2.1158 1.0427-6.25-0.6961-2.4095-12.217-26.656-25.602-53.881-39.465-80.27-48.878-103.35-56.902-139.5-3.4621-15.599-10.322-55.936-18.622-109.5-6.718-43.354-10.663-63.366-13.647-69.233-2.1787-4.2833-6.7873-6.1473-15.356-6.2111-9.0045-0.067-15.323 2.0848-19.693 6.7066-1.6837 1.7807-6.5606 9.0876-10.838 16.238-4.277 7.15-15.376 25.224-24.666 40.164l-16.889 27.164 4.9067 8.5574c11.205 19.542 14.168 36.783 10.228 59.519-5.5404 31.973-16.101 70.452-27.746 101.1-6.3607 16.738-18.231 41.637-24.24 50.843-4.3513 6.6667-4.4082 7.2695-1.3176 13.952 2.9315 6.338 10.048 7.6615 27.485 5.1118 4.2633-0.6234 12.368-0.9453 18.01-0.7155 14.125 0.5754 13.254 0.099 42.881 23.423 19.387 15.262 30.724 23.001 40.427 27.595 9.3816 4.4425 17.282 4.4046 38.451-0.1847 20.448-4.4329 26.775-4.4356 38-0.016 17.69 6.9647 29.602 8.755 34.087 5.1233z"/>
  <path d="m564 1762.3c-107.39-0.9639-192.77-9.1785-253.19-24.361-51.676-12.985-88.897-29.694-133.92-60.116-22.595-15.268-39.665-29.468-60.416-50.257-24.053-24.098-39.712-43.782-55.338-69.562-32.224-53.165-50.416-110.77-57.319-181.5-1.9265-19.739-1.6265-73.982 0.52826-95.5 7.6429-76.324 26.178-145.89 53.282-199.99 18.612-37.145 41.111-65.209 59.207-73.851 7.454-3.5595 7.992-3.6623 19.169-3.6623 10.336 0 12.069 0.2668 17.12 2.6352 6.9615 3.2641 13.373 8.9513 16.085 14.267 1.7698 3.4691 1.9748 5.1717 1.4526 12.068-1.4747 19.476-13.851 55.932-33.541 98.802-13.789 30.022-20.824 49.136-27.572 74.915-24.19 92.412-17.022 182 20.429 255.3 55.954 109.52 148.15 161.05 316.53 176.92 35.468 3.343 53.028 4.0321 103.5 4.0611l51.5 0.03 13.581-2.7479c31.763-6.4267 63.299-18.064 87.671-32.353 17.347-10.17 30.711-21.436 33.4-28.157 1.3936-3.4829 1.3465-27.651-0.15752-80.742-3.202-113.03 6.1182-210.82 28.466-298.68 21.626-85.016 55.836-160.88 101.68-225.49 23.908-33.693 46.246-59.822 80.303-93.932 49.994-50.071 98.65-89.229 166.05-133.64 94.192-62.056 192.43-111.57 327-164.81 14.582-5.7696 21.785-9.1451 23.57-11.046 6.4933-6.9146 8.7575-26.11 7.0436-59.715-2.1128-41.423 1.9673-98.414 10.144-141.7 2.919-15.451 3.205-18.686 3.1373-35.5-0.1042-25.888-1.5613-34.518-22.792-135-13.514-63.958-16.405-82.961-17.27-113.5-0.438-15.462-0.2236-21.929 0.9447-28.5 2.9252-16.454 8.4642-26.145 17.223-30.134 13.267-6.0424 24.637 1.0747 86.5 54.146 25.802 22.135 38.038 31.942 45.571 36.528 5.354 3.2586 6.4882 3.571 11.692 3.2201 12.491-0.84214 16.565-7.94 20.238-35.259 4.6455-34.545 11.392-56.042 23.13-73.698 5.1551-7.7544 9.861-11.468 12.138-9.5776 3.5665 2.96 7.4456 14.167 17.228 49.776 6.6066 24.048 8.9405 30.613 12.705 35.737 3.5649 4.8522 5.8704 5.6986 15.797 5.7992 7.4969 0.07598 10.67 0.66514 19 3.5277l10 3.4365 21.5-0.26814c13.22-0.16487 23.315 0.15889 26.212 0.84068 6.2504 1.4707 12.221 6.8454 19.092 17.187 3.0111 4.5321 7.5118 10.209 10.001 12.616 5.9777 5.7785 12.944 7.77 49.695 14.206 45.539 7.9752 49.531 9.2085 58.102 17.952 10.045 10.247 23.853 33.042 28.385 46.858 2.2531 6.8698 1.6686 12.948-2.9291 30.461-3.8409 14.63-5.5458 25.464-5.5813 35.469-0.053 14.953-9.7889 29.444-62.494 93.02-29.31 35.356-38.929 47.814-43.69 56.589-3.2313 5.9555-3.2992 6.342-3.6316 20.669-0.3992 17.205 0.6496 27.327 8.8486 85.4 15.784 111.8 18.045 145.21 13.394 198-4.573 51.903-14.083 95.626-39.912 183.5-3.438 11.696-3.6419 13.143-3.1706 22.5 0.9036 17.94 11.748 54.037 29.818 99.253 11.343 28.384 11.646 28.969 17.914 34.604 19.753 17.759 95.786 50.924 198.95 86.779 15.675 5.448 31.772 11.07 35.772 12.494 61.166 21.774 141.59 154.66 137.9 227.87-1.087 21.597-6.5683 35.355-19.165 48.106-12.099 12.247-25.079 17.795-44.508 19.026-17.407 1.1023-28.298-2.5733-38.366-12.948-7.2557-7.4765-11.481-14.304-16.704-26.987-5.0607-12.291-8.6071-26.232-10.454-41.096-3.8369-30.877-6.0233-39.658-13.72-55.101-7.865-15.78-15.956-25.055-26.476-30.351-18.047-9.0846-69.012-20.74-184.28-42.145-23.925-4.4427-47.775-8.9846-53-10.093-34.901-7.4037-61.675-16.624-108.4-37.332-27.293-12.095-32.151-14.043-40.057-16.059-16.949-4.3234-24.192 0.3627-35.822 23.178-12.227 23.984-27.104 66.903-38.755 111.8-3.8098 14.682-4.102 16.7-3.5464 24.5 1.7683 24.828 11.975 66.494 27.291 111.41 13.309 39.028 20.438 53.17 86.76 172.09 37.424 67.106 49.276 90.283 51.077 99.885 0.3933 2.0964 0.012 5.6308-0.9747 9.0231-2.6402 9.082-10.076 15.113-21.57 17.495-4.0712 0.8437-154.48 1.1991-579 1.3684-315.42 0.1258-583.62 0.1378-596 0.027zm992.34-78.348c2.5852-2.0335 2.5936-2.0848 1.0224-6.25-0.8713-2.3098-12.067-25.575-24.88-51.7-25.884-52.778-33.699-69.776-43.171-93.896-11.655-29.68-16.478-50.661-26.807-116.6-14.326-91.465-17.452-107.69-21.591-112.1-4.4899-4.7793-18.14-5.6082-27.099-1.6455-6.0096 2.6583-8.4549 5.6113-18.417 22.241-4.7776 7.975-15.596 25.602-24.042 39.172-8.4454 13.569-15.605 25.323-15.911 26.12s1.2712 4.3191 3.5041 7.8283c8.6903 13.658 13.732 32.176 12.753 46.845-0.6624 9.9264-4.3684 29.638-9.3134 49.535-11.195 45.047-26.653 86.355-41.916 112.01-6.2817 10.56-6.4221 10.948-5.3727 14.845 1.2742 4.7318 5.6254 9.1359 9.8638 9.9836 1.6674 0.3334 8.321-0.053 14.786-0.8599 6.4647-0.8064 15.687-1.4698 20.493-1.4742 14.092-0.013 17.455 1.7676 45.261 23.968 16.715 13.345 30.455 22.692 40 27.211 6.3283 2.9959 7.8156 3.3021 15.5 3.1912 5.3843-0.078 13.998-1.3048 23.5-3.3477 19.157-4.1188 26.56-4.2184 36-0.4843 19.013 7.5211 30.872 9.3095 35.837 5.4043z"/>
 </g>
 <g display="none">
  <text x="1.3654388" y="5.9058776" fill="#000000" font-family="Roboto" font-size="2.8222px" font-weight="bold" letter-spacing="0px" stroke-width=".26458" word-spacing="0px" style="line-height:1.25" xml:space="preserve"><tspan x="1.3654388" y="5.9058776" fill="#000000" font-family="'Fira Code'" font-size="2.8222px" font-weight="bold" stroke-width=".26458">(.*)</tspan></text>
 </g>
</svg>
